<svg id="visual" viewBox="0 0 960 540" width="960" height="540" xmlns="http://www.w3.org/2000/svg" xmlns:xlink="http://www.w3.org/1999/xlink" version="1.1"><g stroke-width="1" stroke-linejoin="bevel"><path d="M466 269L498 279L478 247Z" fill="#081a28" stroke="#081a28"></path><path d="M498 279L503 249L478 247Z" fill="#297ea6" stroke="#297ea6"></path><path d="M503 249L498 222L478 247Z" fill="#15384f" stroke="#15384f"></path><path d="M498 222L436 222L478 247Z" fill="#19435d" stroke="#19435d"></path><path d="M478 247L436 222L466 269Z" fill="#081a28" stroke="#081a28"></path><path d="M528 340L539 304L498 279Z" fill="#00101c" stroke="#00101c"></path><path d="M498 279L539 304L503 249Z" fill="#19435d" stroke="#19435d"></path><path d="M503 249L574 275L498 222Z" fill="#081a28" stroke="#081a28"></path><path d="M436 222L423 233L466 269Z" fill="#112e42" stroke="#112e42"></path><path d="M401 294L434 314L466 269Z" fill="#0c2435" stroke="#0c2435"></path><path d="M466 269L467 338L498 279Z" fill="#15384f" stroke="#15384f"></path><path d="M434 314L467 338L466 269Z" fill="#297ea6" stroke="#297ea6"></path><path d="M434 314L451 337L467 338Z" fill="#15384f" stroke="#15384f"></path><path d="M467 338L528 340L498 279Z" fill="#246688" stroke="#246688"></path><path d="M423 233L401 294L466 269Z" fill="#112e42" stroke="#112e42"></path><path d="M434 314L397 317L451 337Z" fill="#1d4e6b" stroke="#1d4e6b"></path><path d="M574 299L574 275L539 304Z" fill="#0c2435" stroke="#0c2435"></path><path d="M539 304L574 275L503 249Z" fill="#1d4e6b" stroke="#1d4e6b"></path><path d="M528 340L543 336L539 304Z" fill="#205a7a" stroke="#205a7a"></path><path d="M543 336L574 299L539 304Z" fill="#19435d" stroke="#19435d"></path><path d="M473 147L440 180L498 222Z" fill="#205a7a" stroke="#205a7a"></path><path d="M498 222L440 180L436 222Z" fill="#15384f" stroke="#15384f"></path><path d="M436 222L440 180L423 233Z" fill="#15384f" stroke="#15384f"></path><path d="M423 233L374 273L401 294Z" fill="#0c2435" stroke="#0c2435"></path><path d="M401 294L398 307L434 314Z" fill="#0c2435" stroke="#0c2435"></path><path d="M467 338L524 359L528 340Z" fill="#1d4e6b" stroke="#1d4e6b"></path><path d="M528 340L524 359L543 336Z" fill="#0c2435" stroke="#0c2435"></path><path d="M543 336L605 374L574 299Z" fill="#081a28" stroke="#081a28"></path><path d="M520 387L524 359L471 397Z" fill="#00101c" stroke="#00101c"></path><path d="M398 307L397 317L434 314Z" fill="#15384f" stroke="#15384f"></path><path d="M318 227L374 273L423 233Z" fill="#297ea6" stroke="#297ea6"></path><path d="M401 294L368 290L398 307Z" fill="#081a28" stroke="#081a28"></path><path d="M398 307L368 290L397 317Z" fill="#277297" stroke="#277297"></path><path d="M481 141L473 147L513 137Z" fill="#0c2435" stroke="#0c2435"></path><path d="M374 273L368 290L401 294Z" fill="#277297" stroke="#277297"></path><path d="M513 137L473 147L498 222Z" fill="#246688" stroke="#246688"></path><path d="M471 397L524 359L467 338Z" fill="#081a28" stroke="#081a28"></path><path d="M524 359L557 388L543 336Z" fill="#19435d" stroke="#19435d"></path><path d="M471 397L467 338L451 337Z" fill="#19435d" stroke="#19435d"></path><path d="M462 130L448 142L473 147Z" fill="#00101c" stroke="#00101c"></path><path d="M473 147L448 142L440 180Z" fill="#19435d" stroke="#19435d"></path><path d="M440 180L393 143L423 233Z" fill="#112e42" stroke="#112e42"></path><path d="M578 155L524 140L498 222Z" fill="#277297" stroke="#277297"></path><path d="M524 140L513 137L498 222Z" fill="#112e42" stroke="#112e42"></path><path d="M481 141L462 130L473 147Z" fill="#112e42" stroke="#112e42"></path><path d="M455 402L451 337L397 317Z" fill="#15384f" stroke="#15384f"></path><path d="M455 402L471 397L451 337Z" fill="#205a7a" stroke="#205a7a"></path><path d="M494 100L462 130L481 141Z" fill="#081a28" stroke="#081a28"></path><path d="M378 424L455 402L397 317Z" fill="#15384f" stroke="#15384f"></path><path d="M539 407L557 388L520 387Z" fill="#112e42" stroke="#112e42"></path><path d="M524 140L517 127L513 137Z" fill="#19435d" stroke="#19435d"></path><path d="M513 137L517 127L481 141Z" fill="#081a28" stroke="#081a28"></path><path d="M539 407L520 387L471 397Z" fill="#00101c" stroke="#00101c"></path><path d="M520 387L557 388L524 359Z" fill="#1d4e6b" stroke="#1d4e6b"></path><path d="M651 193L578 155L574 275Z" fill="#081a28" stroke="#081a28"></path><path d="M574 275L578 155L498 222Z" fill="#205a7a" stroke="#205a7a"></path><path d="M524 140L517 117L517 127Z" fill="#112e42" stroke="#112e42"></path><path d="M578 155L517 117L524 140Z" fill="#277297" stroke="#277297"></path><path d="M517 127L494 100L481 141Z" fill="#246688" stroke="#246688"></path><path d="M477 487L539 407L471 397Z" fill="#15384f" stroke="#15384f"></path><path d="M387 124L448 142L434 61Z" fill="#205a7a" stroke="#205a7a"></path><path d="M387 124L393 143L448 142Z" fill="#205a7a" stroke="#205a7a"></path><path d="M448 142L393 143L440 180Z" fill="#0c2435" stroke="#0c2435"></path><path d="M374 273L298 254L368 290Z" fill="#277297" stroke="#277297"></path><path d="M585 405L605 374L557 388Z" fill="#277297" stroke="#277297"></path><path d="M557 388L605 374L543 336Z" fill="#297ea6" stroke="#297ea6"></path><path d="M574 299L653 295L574 275Z" fill="#297ea6" stroke="#297ea6"></path><path d="M486 75L494 100L517 117Z" fill="#297ea6" stroke="#297ea6"></path><path d="M517 117L494 100L517 127Z" fill="#0c2435" stroke="#0c2435"></path><path d="M648 350L653 295L574 299Z" fill="#277297" stroke="#277297"></path><path d="M335 169L318 227L423 233Z" fill="#15384f" stroke="#15384f"></path><path d="M304 362L378 424L397 317Z" fill="#0c2435" stroke="#0c2435"></path><path d="M434 61L448 142L462 130Z" fill="#19435d" stroke="#19435d"></path><path d="M393 143L335 169L423 233Z" fill="#112e42" stroke="#112e42"></path><path d="M539 407L585 405L557 388Z" fill="#297ea6" stroke="#297ea6"></path><path d="M336 165L335 169L393 143Z" fill="#112e42" stroke="#112e42"></path><path d="M369 118L336 165L393 143Z" fill="#15384f" stroke="#15384f"></path><path d="M265 230L298 254L318 227Z" fill="#246688" stroke="#246688"></path><path d="M620 395L638 359L605 374Z" fill="#15384f" stroke="#15384f"></path><path d="M605 374L638 359L574 299Z" fill="#205a7a" stroke="#205a7a"></path><path d="M664 224L651 193L574 275Z" fill="#277297" stroke="#277297"></path><path d="M480 26L486 75L501 0Z" fill="#246688" stroke="#246688"></path><path d="M671 262L664 224L574 275Z" fill="#246688" stroke="#246688"></path><path d="M638 359L648 350L574 299Z" fill="#205a7a" stroke="#205a7a"></path><path d="M653 295L671 262L574 275Z" fill="#15384f" stroke="#15384f"></path><path d="M672 289L671 262L653 295Z" fill="#277297" stroke="#277297"></path><path d="M357 101L369 118L387 124Z" fill="#081a28" stroke="#081a28"></path><path d="M387 124L369 118L393 143Z" fill="#0c2435" stroke="#0c2435"></path><path d="M308 194L318 227L335 169Z" fill="#277297" stroke="#277297"></path><path d="M318 227L298 254L374 273Z" fill="#205a7a" stroke="#205a7a"></path><path d="M585 405L620 395L605 374Z" fill="#00101c" stroke="#00101c"></path><path d="M638 359L649 383L648 350Z" fill="#00101c" stroke="#00101c"></path><path d="M671 304L672 289L653 295Z" fill="#00101c" stroke="#00101c"></path><path d="M620 51L517 117L578 155Z" fill="#19435d" stroke="#19435d"></path><path d="M494 100L486 75L462 130Z" fill="#205a7a" stroke="#205a7a"></path><path d="M648 350L671 304L653 295Z" fill="#0c2435" stroke="#0c2435"></path><path d="M325 158L335 169L336 165Z" fill="#1d4e6b" stroke="#1d4e6b"></path><path d="M325 158L308 194L335 169Z" fill="#277297" stroke="#277297"></path><path d="M659 145L638 151L668 151Z" fill="#205a7a" stroke="#205a7a"></path><path d="M651 193L638 151L578 155Z" fill="#1d4e6b" stroke="#1d4e6b"></path><path d="M304 362L397 317L368 290Z" fill="#00101c" stroke="#00101c"></path><path d="M455 402L477 487L471 397Z" fill="#19435d" stroke="#19435d"></path><path d="M590 473L617 414L585 405Z" fill="#1d4e6b" stroke="#1d4e6b"></path><path d="M324 146L325 158L336 165Z" fill="#277297" stroke="#277297"></path><path d="M590 473L585 405L539 407Z" fill="#19435d" stroke="#19435d"></path><path d="M585 405L617 414L620 395Z" fill="#297ea6" stroke="#297ea6"></path><path d="M620 395L649 383L638 359Z" fill="#246688" stroke="#246688"></path><path d="M741 318L709 281L671 304Z" fill="#112e42" stroke="#112e42"></path><path d="M369 118L324 146L336 165Z" fill="#112e42" stroke="#112e42"></path><path d="M325 158L275 199L308 194Z" fill="#081a28" stroke="#081a28"></path><path d="M617 414L649 383L620 395Z" fill="#081a28" stroke="#081a28"></path><path d="M291 337L304 362L368 290Z" fill="#1d4e6b" stroke="#1d4e6b"></path><path d="M298 254L291 337L368 290Z" fill="#00101c" stroke="#00101c"></path><path d="M434 61L357 101L387 124Z" fill="#081a28" stroke="#081a28"></path><path d="M369 118L357 101L324 146Z" fill="#15384f" stroke="#15384f"></path><path d="M486 75L434 61L462 130Z" fill="#246688" stroke="#246688"></path><path d="M668 151L638 151L651 193Z" fill="#1d4e6b" stroke="#1d4e6b"></path><path d="M620 51L486 75L517 117Z" fill="#205a7a" stroke="#205a7a"></path><path d="M668 151L651 193L700 190Z" fill="#205a7a" stroke="#205a7a"></path><path d="M400 540L417 467L322 543Z" fill="#19435d" stroke="#19435d"></path><path d="M378 424L417 467L455 402Z" fill="#00101c" stroke="#00101c"></path><path d="M256 328L278 324L225 279Z" fill="#112e42" stroke="#112e42"></path><path d="M298 254L278 324L291 337Z" fill="#0c2435" stroke="#0c2435"></path><path d="M291 337L290 381L304 362Z" fill="#00101c" stroke="#00101c"></path><path d="M486 75L441 54L434 61Z" fill="#246688" stroke="#246688"></path><path d="M434 61L397 0L357 101Z" fill="#081a28" stroke="#081a28"></path><path d="M480 26L441 54L486 75Z" fill="#112e42" stroke="#112e42"></path><path d="M700 190L651 193L664 224Z" fill="#15384f" stroke="#15384f"></path><path d="M700 190L664 224L723 201Z" fill="#00101c" stroke="#00101c"></path><path d="M324 146L275 199L325 158Z" fill="#246688" stroke="#246688"></path><path d="M308 194L275 199L318 227Z" fill="#15384f" stroke="#15384f"></path><path d="M223 146L275 199L324 146Z" fill="#0c2435" stroke="#0c2435"></path><path d="M454 488L477 487L455 402Z" fill="#112e42" stroke="#112e42"></path><path d="M275 199L265 230L318 227Z" fill="#205a7a" stroke="#205a7a"></path><path d="M671 304L709 281L672 289Z" fill="#277297" stroke="#277297"></path><path d="M672 289L709 281L671 262Z" fill="#205a7a" stroke="#205a7a"></path><path d="M732 348L671 304L648 350Z" fill="#0c2435" stroke="#0c2435"></path><path d="M417 467L454 488L455 402Z" fill="#112e42" stroke="#112e42"></path><path d="M264 334L290 381L291 337Z" fill="#277297" stroke="#277297"></path><path d="M304 362L306 424L378 424Z" fill="#246688" stroke="#246688"></path><path d="M715 194L700 190L723 201Z" fill="#246688" stroke="#246688"></path><path d="M278 324L264 334L291 337Z" fill="#15384f" stroke="#15384f"></path><path d="M256 328L264 334L278 324Z" fill="#246688" stroke="#246688"></path><path d="M557 510L590 473L539 407Z" fill="#297ea6" stroke="#297ea6"></path><path d="M617 414L689 399L649 383Z" fill="#15384f" stroke="#15384f"></path><path d="M225 279L278 324L298 254Z" fill="#19435d" stroke="#19435d"></path><path d="M264 334L281 390L290 381Z" fill="#19435d" stroke="#19435d"></path><path d="M650 74L578 155L638 151Z" fill="#081a28" stroke="#081a28"></path><path d="M333 0L306 104L357 101Z" fill="#277297" stroke="#277297"></path><path d="M210 394L281 390L264 334Z" fill="#246688" stroke="#246688"></path><path d="M290 381L306 424L304 362Z" fill="#205a7a" stroke="#205a7a"></path><path d="M417 467L458 509L454 488Z" fill="#277297" stroke="#277297"></path><path d="M281 390L306 424L290 381Z" fill="#112e42" stroke="#112e42"></path><path d="M409 0L434 61L441 54Z" fill="#0c2435" stroke="#0c2435"></path><path d="M357 101L306 104L324 146Z" fill="#0c2435" stroke="#0c2435"></path><path d="M723 201L664 224L737 246Z" fill="#112e42" stroke="#112e42"></path><path d="M700 190L745 134L668 151Z" fill="#246688" stroke="#246688"></path><path d="M628 472L689 399L617 414Z" fill="#15384f" stroke="#15384f"></path><path d="M649 383L689 399L648 350Z" fill="#246688" stroke="#246688"></path><path d="M462 540L458 509L400 540Z" fill="#246688" stroke="#246688"></path><path d="M454 488L458 509L477 487Z" fill="#246688" stroke="#246688"></path><path d="M477 487L557 510L539 407Z" fill="#246688" stroke="#246688"></path><path d="M737 246L664 224L671 262Z" fill="#205a7a" stroke="#205a7a"></path><path d="M671 81L659 145L668 151Z" fill="#0c2435" stroke="#0c2435"></path><path d="M737 246L671 262L709 281Z" fill="#277297" stroke="#277297"></path><path d="M633 540L628 472L590 473Z" fill="#112e42" stroke="#112e42"></path><path d="M590 473L628 472L617 414Z" fill="#246688" stroke="#246688"></path><path d="M671 81L650 74L659 145Z" fill="#246688" stroke="#246688"></path><path d="M659 145L650 74L638 151Z" fill="#297ea6" stroke="#297ea6"></path><path d="M671 81L668 151L745 134Z" fill="#19435d" stroke="#19435d"></path><path d="M745 263L737 246L709 281Z" fill="#205a7a" stroke="#205a7a"></path><path d="M650 74L620 51L578 155Z" fill="#19435d" stroke="#19435d"></path><path d="M523 540L557 510L477 487Z" fill="#297ea6" stroke="#297ea6"></path><path d="M741 318L745 263L709 281Z" fill="#112e42" stroke="#112e42"></path><path d="M737 246L767 236L723 201Z" fill="#112e42" stroke="#112e42"></path><path d="M265 230L225 279L298 254Z" fill="#1d4e6b" stroke="#1d4e6b"></path><path d="M253 442L280 439L281 390Z" fill="#246688" stroke="#246688"></path><path d="M214 283L225 279L170 235Z" fill="#1d4e6b" stroke="#1d4e6b"></path><path d="M225 279L265 230L170 235Z" fill="#19435d" stroke="#19435d"></path><path d="M711 406L732 348L689 399Z" fill="#00101c" stroke="#00101c"></path><path d="M689 399L732 348L648 350Z" fill="#19435d" stroke="#19435d"></path><path d="M732 348L741 318L671 304Z" fill="#00101c" stroke="#00101c"></path><path d="M745 134L700 190L715 194Z" fill="#19435d" stroke="#19435d"></path><path d="M650 74L677 45L620 51Z" fill="#081a28" stroke="#081a28"></path><path d="M591 0L501 0L486 75Z" fill="#00101c" stroke="#00101c"></path><path d="M480 26L464 0L441 54Z" fill="#15384f" stroke="#15384f"></path><path d="M501 0L464 0L480 26Z" fill="#1d4e6b" stroke="#1d4e6b"></path><path d="M709 469L711 406L689 399Z" fill="#081a28" stroke="#081a28"></path><path d="M210 394L264 334L256 328Z" fill="#277297" stroke="#277297"></path><path d="M281 390L280 439L306 424Z" fill="#112e42" stroke="#112e42"></path><path d="M322 543L417 467L378 424Z" fill="#112e42" stroke="#112e42"></path><path d="M462 540L494 535L458 509Z" fill="#297ea6" stroke="#297ea6"></path><path d="M458 509L494 535L477 487Z" fill="#19435d" stroke="#19435d"></path><path d="M464 0L431 0L441 54Z" fill="#297ea6" stroke="#297ea6"></path><path d="M223 146L265 230L275 199Z" fill="#297ea6" stroke="#297ea6"></path><path d="M225 279L214 283L256 328Z" fill="#19435d" stroke="#19435d"></path><path d="M462 540L501 540L494 535Z" fill="#19435d" stroke="#19435d"></path><path d="M494 535L523 540L477 487Z" fill="#277297" stroke="#277297"></path><path d="M666 540L687 483L628 472Z" fill="#1d4e6b" stroke="#1d4e6b"></path><path d="M431 0L409 0L441 54Z" fill="#00101c" stroke="#00101c"></path><path d="M400 540L458 509L417 467Z" fill="#15384f" stroke="#15384f"></path><path d="M501 540L523 540L494 535Z" fill="#297ea6" stroke="#297ea6"></path><path d="M409 0L397 0L434 61Z" fill="#00101c" stroke="#00101c"></path><path d="M523 540L537 540L557 510Z" fill="#277297" stroke="#277297"></path><path d="M768 239L737 246L745 263Z" fill="#00101c" stroke="#00101c"></path><path d="M768 239L767 236L737 246Z" fill="#205a7a" stroke="#205a7a"></path><path d="M723 201L745 134L715 194Z" fill="#205a7a" stroke="#205a7a"></path><path d="M768 239L745 263L835 259Z" fill="#15384f" stroke="#15384f"></path><path d="M767 236L768 239L788 219Z" fill="#246688" stroke="#246688"></path><path d="M733 442L732 407L711 406Z" fill="#277297" stroke="#277297"></path><path d="M711 406L732 407L732 348Z" fill="#112e42" stroke="#112e42"></path><path d="M732 348L853 352L741 318Z" fill="#205a7a" stroke="#205a7a"></path><path d="M687 483L689 399L628 472Z" fill="#1d4e6b" stroke="#1d4e6b"></path><path d="M646 0L591 0L620 51Z" fill="#00101c" stroke="#00101c"></path><path d="M620 51L591 0L486 75Z" fill="#277297" stroke="#277297"></path><path d="M218 102L223 146L306 104Z" fill="#205a7a" stroke="#205a7a"></path><path d="M306 104L223 146L324 146Z" fill="#081a28" stroke="#081a28"></path><path d="M322 543L378 424L306 424Z" fill="#246688" stroke="#246688"></path><path d="M163 258L200 321L214 283Z" fill="#00101c" stroke="#00101c"></path><path d="M214 283L200 321L256 328Z" fill="#19435d" stroke="#19435d"></path><path d="M786 212L723 201L767 236Z" fill="#297ea6" stroke="#297ea6"></path><path d="M786 212L745 134L723 201Z" fill="#112e42" stroke="#112e42"></path><path d="M671 81L677 45L650 74Z" fill="#15384f" stroke="#15384f"></path><path d="M210 394L253 442L281 390Z" fill="#1d4e6b" stroke="#1d4e6b"></path><path d="M307 540L322 543L306 424Z" fill="#0c2435" stroke="#0c2435"></path><path d="M745 134L677 45L671 81Z" fill="#0c2435" stroke="#0c2435"></path><path d="M633 540L590 473L557 510Z" fill="#277297" stroke="#277297"></path><path d="M687 483L709 469L689 399Z" fill="#00101c" stroke="#00101c"></path><path d="M200 321L210 394L256 328Z" fill="#081a28" stroke="#081a28"></path><path d="M709 469L733 442L711 406Z" fill="#1d4e6b" stroke="#1d4e6b"></path><path d="M788 219L768 239L819 224Z" fill="#0c2435" stroke="#0c2435"></path><path d="M397 0L333 0L357 101Z" fill="#19435d" stroke="#19435d"></path><path d="M788 219L786 212L767 236Z" fill="#19435d" stroke="#19435d"></path><path d="M768 239L835 259L819 224Z" fill="#246688" stroke="#246688"></path><path d="M785 413L732 348L732 407Z" fill="#277297" stroke="#277297"></path><path d="M677 45L646 0L620 51Z" fill="#00101c" stroke="#00101c"></path><path d="M715 0L646 0L677 45Z" fill="#246688" stroke="#246688"></path><path d="M333 0L321 0L306 104Z" fill="#112e42" stroke="#112e42"></path><path d="M537 540L633 540L557 510Z" fill="#081a28" stroke="#081a28"></path><path d="M687 483L721 547L709 469Z" fill="#0c2435" stroke="#0c2435"></path><path d="M230 79L218 102L306 104Z" fill="#205a7a" stroke="#205a7a"></path><path d="M169 191L170 235L265 230Z" fill="#15384f" stroke="#15384f"></path><path d="M258 27L230 79L306 104Z" fill="#0c2435" stroke="#0c2435"></path><path d="M169 191L265 230L223 146Z" fill="#205a7a" stroke="#205a7a"></path><path d="M200 321L158 371L210 394Z" fill="#15384f" stroke="#15384f"></path><path d="M537 540L639 546L633 540Z" fill="#0c2435" stroke="#0c2435"></path><path d="M633 540L666 540L628 472Z" fill="#112e42" stroke="#112e42"></path><path d="M362 580L639 546L537 540Z" fill="#277297" stroke="#277297"></path><path d="M362 580L537 540L523 540Z" fill="#297ea6" stroke="#297ea6"></path><path d="M362 580L523 540L501 540Z" fill="#1d4e6b" stroke="#1d4e6b"></path><path d="M362 580L501 540L462 540Z" fill="#15384f" stroke="#15384f"></path><path d="M170 235L163 258L214 283Z" fill="#112e42" stroke="#112e42"></path><path d="M307 540L280 439L268 540Z" fill="#112e42" stroke="#112e42"></path><path d="M307 540L306 424L280 439Z" fill="#277297" stroke="#277297"></path><path d="M400 540L362 580L462 540Z" fill="#081a28" stroke="#081a28"></path><path d="M142 180L169 191L223 146Z" fill="#1d4e6b" stroke="#1d4e6b"></path><path d="M170 235L107 243L163 258Z" fill="#081a28" stroke="#081a28"></path><path d="M142 180L223 146L118 114Z" fill="#1d4e6b" stroke="#1d4e6b"></path><path d="M268 540L280 439L253 442Z" fill="#19435d" stroke="#19435d"></path><path d="M321 0L258 27L306 104Z" fill="#15384f" stroke="#15384f"></path><path d="M118 114L223 146L218 102Z" fill="#205a7a" stroke="#205a7a"></path><path d="M639 546L666 540L633 540Z" fill="#112e42" stroke="#112e42"></path><path d="M785 421L732 407L733 442Z" fill="#15384f" stroke="#15384f"></path><path d="M321 0L278 4L258 27Z" fill="#297ea6" stroke="#297ea6"></path><path d="M786 212L794 140L745 134Z" fill="#081a28" stroke="#081a28"></path><path d="M745 134L720 10L677 45Z" fill="#277297" stroke="#277297"></path><path d="M804 152L794 140L786 212Z" fill="#297ea6" stroke="#297ea6"></path><path d="M785 421L733 442L816 455Z" fill="#081a28" stroke="#081a28"></path><path d="M785 421L785 413L732 407Z" fill="#246688" stroke="#246688"></path><path d="M788 219L819 224L786 212Z" fill="#205a7a" stroke="#205a7a"></path><path d="M835 259L745 263L741 318Z" fill="#246688" stroke="#246688"></path><path d="M307 540L362 580L322 543Z" fill="#00101c" stroke="#00101c"></path><path d="M322 543L362 580L400 540Z" fill="#19435d" stroke="#19435d"></path><path d="M816 455L811 496L820 465Z" fill="#00101c" stroke="#00101c"></path><path d="M853 352L835 259L741 318Z" fill="#00101c" stroke="#00101c"></path><path d="M847 193L804 152L786 212Z" fill="#246688" stroke="#246688"></path><path d="M113 351L158 371L200 321Z" fill="#297ea6" stroke="#297ea6"></path><path d="M210 394L172 412L253 442Z" fill="#1d4e6b" stroke="#1d4e6b"></path><path d="M158 371L172 412L210 394Z" fill="#205a7a" stroke="#205a7a"></path><path d="M717 0L720 10L763 4Z" fill="#00101c" stroke="#00101c"></path><path d="M763 4L720 10L803 42Z" fill="#1d4e6b" stroke="#1d4e6b"></path><path d="M715 0L651 -42L646 0Z" fill="#297ea6" stroke="#297ea6"></path><path d="M646 0L651 -42L591 0Z" fill="#1d4e6b" stroke="#1d4e6b"></path><path d="M591 0L651 -42L501 0Z" fill="#246688" stroke="#246688"></path><path d="M501 0L651 -42L464 0Z" fill="#19435d" stroke="#19435d"></path><path d="M464 0L651 -42L431 0Z" fill="#1d4e6b" stroke="#1d4e6b"></path><path d="M431 0L651 -42L409 0Z" fill="#15384f" stroke="#15384f"></path><path d="M409 0L651 -42L397 0Z" fill="#277297" stroke="#277297"></path><path d="M179 -28L321 0L333 0Z" fill="#15384f" stroke="#15384f"></path><path d="M179 -28L278 4L321 0Z" fill="#15384f" stroke="#15384f"></path><path d="M179 -20L200 0L179 -28Z" fill="#0c2435" stroke="#0c2435"></path><path d="M202 489L268 540L253 442Z" fill="#246688" stroke="#246688"></path><path d="M307 540L268 540L362 580Z" fill="#15384f" stroke="#15384f"></path><path d="M853 352L732 348L785 413Z" fill="#205a7a" stroke="#205a7a"></path><path d="M819 224L847 193L786 212Z" fill="#246688" stroke="#246688"></path><path d="M716 0L715 0L720 10Z" fill="#205a7a" stroke="#205a7a"></path><path d="M720 10L715 0L677 45Z" fill="#1d4e6b" stroke="#1d4e6b"></path><path d="M717 0L716 0L720 10Z" fill="#277297" stroke="#277297"></path><path d="M715 0L716 0L651 -42Z" fill="#1d4e6b" stroke="#1d4e6b"></path><path d="M827 105L745 134L794 140Z" fill="#00101c" stroke="#00101c"></path><path d="M716 0L717 0L651 -42Z" fill="#081a28" stroke="#081a28"></path><path d="M169 191L134 191L170 235Z" fill="#112e42" stroke="#112e42"></path><path d="M163 258L113 351L200 321Z" fill="#00101c" stroke="#00101c"></path><path d="M136 44L218 102L230 79Z" fill="#297ea6" stroke="#297ea6"></path><path d="M142 180L134 191L169 191Z" fill="#246688" stroke="#246688"></path><path d="M172 412L202 489L253 442Z" fill="#081a28" stroke="#081a28"></path><path d="M639 546L721 547L666 540Z" fill="#246688" stroke="#246688"></path><path d="M666 540L721 547L687 483Z" fill="#246688" stroke="#246688"></path><path d="M362 580L721 547L639 546Z" fill="#19435d" stroke="#19435d"></path><path d="M859 199L847 193L819 224Z" fill="#081a28" stroke="#081a28"></path><path d="M804 152L827 105L794 140Z" fill="#112e42" stroke="#112e42"></path><path d="M158 371L143 416L172 412Z" fill="#15384f" stroke="#15384f"></path><path d="M172 412L143 416L202 489Z" fill="#15384f" stroke="#15384f"></path><path d="M124 388L143 416L158 371Z" fill="#1d4e6b" stroke="#1d4e6b"></path><path d="M836 427L833 408L785 421Z" fill="#246688" stroke="#246688"></path><path d="M785 421L833 408L785 413Z" fill="#19435d" stroke="#19435d"></path><path d="M835 259L859 199L819 224Z" fill="#0c2435" stroke="#0c2435"></path><path d="M847 193L827 105L804 152Z" fill="#0c2435" stroke="#0c2435"></path><path d="M833 408L853 352L785 413Z" fill="#205a7a" stroke="#205a7a"></path><path d="M110 209L107 243L170 235Z" fill="#00101c" stroke="#00101c"></path><path d="M94 196L110 209L134 191Z" fill="#277297" stroke="#277297"></path><path d="M134 191L110 209L170 235Z" fill="#246688" stroke="#246688"></path><path d="M94 196L134 191L142 180Z" fill="#277297" stroke="#277297"></path><path d="M891 269L859 199L835 259Z" fill="#15384f" stroke="#15384f"></path><path d="M847 193L900 165L827 105Z" fill="#19435d" stroke="#19435d"></path><path d="M113 351L124 388L158 371Z" fill="#246688" stroke="#246688"></path><path d="M803 42L720 10L745 134Z" fill="#00101c" stroke="#00101c"></path><path d="M717 0L768 -10L651 -42Z" fill="#0c2435" stroke="#0c2435"></path><path d="M107 243L113 351L163 258Z" fill="#081a28" stroke="#081a28"></path><path d="M759 540L733 442L709 469Z" fill="#081a28" stroke="#081a28"></path><path d="M110 209L103 232L107 243Z" fill="#205a7a" stroke="#205a7a"></path><path d="M97 358L104 359L113 351Z" fill="#15384f" stroke="#15384f"></path><path d="M833 408L857 386L853 352Z" fill="#19435d" stroke="#19435d"></path><path d="M816 455L836 427L785 421Z" fill="#15384f" stroke="#15384f"></path><path d="M202 489L211 540L268 540Z" fill="#00101c" stroke="#00101c"></path><path d="M268 540L158 586L362 580Z" fill="#1d4e6b" stroke="#1d4e6b"></path><path d="M210 540L211 540L202 489Z" fill="#19435d" stroke="#19435d"></path><path d="M210 540L202 489L164 540Z" fill="#0c2435" stroke="#0c2435"></path><path d="M721 547L759 540L709 469Z" fill="#277297" stroke="#277297"></path><path d="M816 455L820 465L836 427Z" fill="#246688" stroke="#246688"></path><path d="M827 105L803 42L745 134Z" fill="#112e42" stroke="#112e42"></path><path d="M803 42L769 0L763 4Z" fill="#00101c" stroke="#00101c"></path><path d="M763 4L768 -10L717 0Z" fill="#00101c" stroke="#00101c"></path><path d="M164 540L202 489L111 504Z" fill="#205a7a" stroke="#205a7a"></path><path d="M211 540L158 586L268 540Z" fill="#00101c" stroke="#00101c"></path><path d="M278 4L200 0L258 27Z" fill="#19435d" stroke="#19435d"></path><path d="M258 27L200 0L230 79Z" fill="#246688" stroke="#246688"></path><path d="M200 0L278 4L179 -28Z" fill="#246688" stroke="#246688"></path><path d="M811 496L816 455L733 442Z" fill="#15384f" stroke="#15384f"></path><path d="M919 352L873 307L853 352Z" fill="#081a28" stroke="#081a28"></path><path d="M853 352L873 307L835 259Z" fill="#297ea6" stroke="#297ea6"></path><path d="M865 433L833 408L836 427Z" fill="#0c2435" stroke="#0c2435"></path><path d="M865 433L857 386L833 408Z" fill="#0c2435" stroke="#0c2435"></path><path d="M97 358L113 351L68 327Z" fill="#15384f" stroke="#15384f"></path><path d="M113 351L104 359L124 388Z" fill="#00101c" stroke="#00101c"></path><path d="M124 388L85 377L143 416Z" fill="#112e42" stroke="#112e42"></path><path d="M873 307L877 276L835 259Z" fill="#00101c" stroke="#00101c"></path><path d="M816 -12L768 -10L769 0Z" fill="#1d4e6b" stroke="#1d4e6b"></path><path d="M769 0L768 -10L763 4Z" fill="#277297" stroke="#277297"></path><path d="M136 44L118 114L218 102Z" fill="#1d4e6b" stroke="#1d4e6b"></path><path d="M110 209L94 196L103 232Z" fill="#081a28" stroke="#081a28"></path><path d="M97 132L94 196L142 180Z" fill="#19435d" stroke="#19435d"></path><path d="M78 262L113 351L107 243Z" fill="#081a28" stroke="#081a28"></path><path d="M843 79L834 75L827 105Z" fill="#00101c" stroke="#00101c"></path><path d="M827 105L834 75L803 42Z" fill="#246688" stroke="#246688"></path><path d="M803 42L816 -12L769 0Z" fill="#00101c" stroke="#00101c"></path><path d="M843 79L827 105L889 94Z" fill="#205a7a" stroke="#205a7a"></path><path d="M78 262L107 243L77 260Z" fill="#246688" stroke="#246688"></path><path d="M104 359L85 377L124 388Z" fill="#00101c" stroke="#00101c"></path><path d="M759 540L811 496L733 442Z" fill="#00101c" stroke="#00101c"></path><path d="M721 547L774 540L759 540Z" fill="#246688" stroke="#246688"></path><path d="M774 540L811 496L759 540Z" fill="#246688" stroke="#246688"></path><path d="M820 465L865 433L836 427Z" fill="#297ea6" stroke="#297ea6"></path><path d="M900 165L847 193L859 199Z" fill="#0c2435" stroke="#0c2435"></path><path d="M834 75L834 61L803 42Z" fill="#277297" stroke="#277297"></path><path d="M721 547L781 540L774 540Z" fill="#112e42" stroke="#112e42"></path><path d="M774 540L781 540L811 496Z" fill="#277297" stroke="#277297"></path><path d="M843 79L834 61L834 75Z" fill="#205a7a" stroke="#205a7a"></path><path d="M873 307L891 269L877 276Z" fill="#081a28" stroke="#081a28"></path><path d="M877 276L891 269L835 259Z" fill="#246688" stroke="#246688"></path><path d="M919 352L891 269L873 307Z" fill="#0c2435" stroke="#0c2435"></path><path d="M77 260L107 243L103 232Z" fill="#246688" stroke="#246688"></path><path d="M59 216L77 260L103 232Z" fill="#19435d" stroke="#19435d"></path><path d="M68 327L85 377L97 358Z" fill="#00101c" stroke="#00101c"></path><path d="M53 105L97 132L118 114Z" fill="#081a28" stroke="#081a28"></path><path d="M118 114L97 132L142 180Z" fill="#112e42" stroke="#112e42"></path><path d="M40 237L68 280L77 260Z" fill="#246688" stroke="#246688"></path><path d="M200 0L136 44L230 79Z" fill="#0c2435" stroke="#0c2435"></path><path d="M68 280L113 351L78 262Z" fill="#246688" stroke="#246688"></path><path d="M97 358L85 377L104 359Z" fill="#277297" stroke="#277297"></path><path d="M900 497L865 433L820 465Z" fill="#112e42" stroke="#112e42"></path><path d="M857 386L919 352L853 352Z" fill="#205a7a" stroke="#205a7a"></path><path d="M900 497L820 465L811 496Z" fill="#00101c" stroke="#00101c"></path><path d="M77 260L68 280L78 262Z" fill="#00101c" stroke="#00101c"></path><path d="M63 212L103 232L94 196Z" fill="#246688" stroke="#246688"></path><path d="M136 44L128 48L118 114Z" fill="#1d4e6b" stroke="#1d4e6b"></path><path d="M74 0L128 48L136 44Z" fill="#081a28" stroke="#081a28"></path><path d="M179 -28L333 0L397 0Z" fill="#081a28" stroke="#081a28"></path><path d="M200 0L179 -20L136 44Z" fill="#00101c" stroke="#00101c"></path><path d="M63 294L68 327L113 351Z" fill="#0c2435" stroke="#0c2435"></path><path d="M111 504L202 489L143 416Z" fill="#205a7a" stroke="#205a7a"></path><path d="M210 540L158 586L211 540Z" fill="#081a28" stroke="#081a28"></path><path d="M40 237L63 294L68 280Z" fill="#205a7a" stroke="#205a7a"></path><path d="M68 280L63 294L113 351Z" fill="#277297" stroke="#277297"></path><path d="M651 -42L179 -28L397 0Z" fill="#15384f" stroke="#15384f"></path><path d="M179 -20L74 0L136 44Z" fill="#081a28" stroke="#081a28"></path><path d="M59 216L0 186L0 196Z" fill="#205a7a" stroke="#205a7a"></path><path d="M64 164L63 212L94 196Z" fill="#0c2435" stroke="#0c2435"></path><path d="M891 269L900 165L859 199Z" fill="#19435d" stroke="#19435d"></path><path d="M840 0L803 42L834 61Z" fill="#1d4e6b" stroke="#1d4e6b"></path><path d="M64 164L94 196L97 132Z" fill="#081a28" stroke="#081a28"></path><path d="M63 212L59 216L103 232Z" fill="#1d4e6b" stroke="#1d4e6b"></path><path d="M889 94L834 61L843 79Z" fill="#081a28" stroke="#081a28"></path><path d="M840 0L816 -12L803 42Z" fill="#112e42" stroke="#112e42"></path><path d="M768 -10L816 -12L651 -42Z" fill="#00101c" stroke="#00101c"></path><path d="M53 105L64 164L97 132Z" fill="#205a7a" stroke="#205a7a"></path><path d="M900 165L889 94L827 105Z" fill="#246688" stroke="#246688"></path><path d="M721 547L829 540L781 540Z" fill="#081a28" stroke="#081a28"></path><path d="M781 540L829 540L811 496Z" fill="#246688" stroke="#246688"></path><path d="M884 540L829 540L721 547Z" fill="#0c2435" stroke="#0c2435"></path><path d="M906 437L857 386L865 433Z" fill="#15384f" stroke="#15384f"></path><path d="M906 437L919 352L857 386Z" fill="#205a7a" stroke="#205a7a"></path><path d="M891 269L960 263L900 165Z" fill="#0c2435" stroke="#0c2435"></path><path d="M861 0L840 0L834 61Z" fill="#277297" stroke="#277297"></path><path d="M85 377L111 504L143 416Z" fill="#19435d" stroke="#19435d"></path><path d="M116 535L111 504L93 540Z" fill="#15384f" stroke="#15384f"></path><path d="M0 196L40 237L59 216Z" fill="#1d4e6b" stroke="#1d4e6b"></path><path d="M59 216L40 237L77 260Z" fill="#00101c" stroke="#00101c"></path><path d="M63 294L0 322L68 327Z" fill="#246688" stroke="#246688"></path><path d="M105 550L116 535L93 540Z" fill="#0c2435" stroke="#0c2435"></path><path d="M116 535L156 573L164 540Z" fill="#205a7a" stroke="#205a7a"></path><path d="M164 540L156 573L210 540Z" fill="#15384f" stroke="#15384f"></path><path d="M900 497L906 437L865 433Z" fill="#0c2435" stroke="#0c2435"></path><path d="M111 504L50 540L93 540Z" fill="#112e42" stroke="#112e42"></path><path d="M111 504L116 535L164 540Z" fill="#19435d" stroke="#19435d"></path><path d="M105 550L158 586L156 573Z" fill="#00101c" stroke="#00101c"></path><path d="M156 573L158 586L210 540Z" fill="#246688" stroke="#246688"></path><path d="M889 94L861 0L834 61Z" fill="#1d4e6b" stroke="#1d4e6b"></path><path d="M840 0L861 0L816 -12Z" fill="#081a28" stroke="#081a28"></path><path d="M41 54L53 105L128 48Z" fill="#246688" stroke="#246688"></path><path d="M128 48L53 105L118 114Z" fill="#15384f" stroke="#15384f"></path><path d="M0 186L59 216L63 212Z" fill="#0c2435" stroke="#0c2435"></path><path d="M111 504L85 377L18 415Z" fill="#15384f" stroke="#15384f"></path><path d="M116 535L105 550L156 573Z" fill="#00101c" stroke="#00101c"></path><path d="M960 282L891 269L960 283Z" fill="#297ea6" stroke="#297ea6"></path><path d="M960 282L960 263L891 269Z" fill="#246688" stroke="#246688"></path><path d="M900 165L960 138L889 94Z" fill="#1d4e6b" stroke="#1d4e6b"></path><path d="M889 94L906 0L861 0Z" fill="#15384f" stroke="#15384f"></path><path d="M960 283L891 269L919 352Z" fill="#112e42" stroke="#112e42"></path><path d="M1000 381L960 283L919 352Z" fill="#277297" stroke="#277297"></path><path d="M829 540L900 497L811 496Z" fill="#277297" stroke="#277297"></path><path d="M906 437L960 393L919 352Z" fill="#1d4e6b" stroke="#1d4e6b"></path><path d="M0 382L85 377L68 327Z" fill="#277297" stroke="#277297"></path><path d="M960 263L956 152L900 165Z" fill="#277297" stroke="#277297"></path><path d="M960 540L884 540L721 547Z" fill="#112e42" stroke="#112e42"></path><path d="M829 540L884 540L900 497Z" fill="#0c2435" stroke="#0c2435"></path><path d="M-50 260L0 322L40 237Z" fill="#0c2435" stroke="#0c2435"></path><path d="M40 237L0 322L63 294Z" fill="#246688" stroke="#246688"></path><path d="M179 -28L74 0L179 -20Z" fill="#0c2435" stroke="#0c2435"></path><path d="M0 186L63 212L64 164Z" fill="#00101c" stroke="#00101c"></path><path d="M0 322L0 329L68 327Z" fill="#246688" stroke="#246688"></path><path d="M0 186L64 164L2 120Z" fill="#1d4e6b" stroke="#1d4e6b"></path><path d="M0 382L18 415L85 377Z" fill="#15384f" stroke="#15384f"></path><path d="M2 120L64 164L53 105Z" fill="#081a28" stroke="#081a28"></path><path d="M74 0L41 54L128 48Z" fill="#0c2435" stroke="#0c2435"></path><path d="M960 263L960 138L956 152Z" fill="#0c2435" stroke="#0c2435"></path><path d="M956 152L960 138L900 165Z" fill="#297ea6" stroke="#297ea6"></path><path d="M960 402L906 437L960 432Z" fill="#297ea6" stroke="#297ea6"></path><path d="M960 402L960 393L906 437Z" fill="#0c2435" stroke="#0c2435"></path><path d="M960 432L906 437L960 440Z" fill="#246688" stroke="#246688"></path><path d="M960 44L906 0L889 94Z" fill="#1d4e6b" stroke="#1d4e6b"></path><path d="M861 0L906 0L816 -12Z" fill="#277297" stroke="#277297"></path><path d="M816 -12L960 0L651 -42Z" fill="#1d4e6b" stroke="#1d4e6b"></path><path d="M0 329L0 382L68 327Z" fill="#112e42" stroke="#112e42"></path><path d="M960 263L965 117L960 138Z" fill="#297ea6" stroke="#297ea6"></path><path d="M960 138L965 117L889 94Z" fill="#15384f" stroke="#15384f"></path><path d="M1000 381L965 117L960 263Z" fill="#246688" stroke="#246688"></path><path d="M1000 381L960 263L960 282Z" fill="#00101c" stroke="#00101c"></path><path d="M1000 381L960 282L960 283Z" fill="#0c2435" stroke="#0c2435"></path><path d="M1000 381L919 352L960 393Z" fill="#112e42" stroke="#112e42"></path><path d="M0 382L0 401L18 415Z" fill="#1d4e6b" stroke="#1d4e6b"></path><path d="M18 415L15 468L111 504Z" fill="#19435d" stroke="#19435d"></path><path d="M960 440L906 437L900 497Z" fill="#19435d" stroke="#19435d"></path><path d="M960 402L1000 381L960 393Z" fill="#112e42" stroke="#112e42"></path><path d="M0 53L2 120L53 105Z" fill="#15384f" stroke="#15384f"></path><path d="M0 401L0 406L18 415Z" fill="#297ea6" stroke="#297ea6"></path><path d="M960 540L960 440L900 497Z" fill="#081a28" stroke="#081a28"></path><path d="M960 432L1000 381L960 402Z" fill="#19435d" stroke="#19435d"></path><path d="M0 406L15 468L18 415Z" fill="#246688" stroke="#246688"></path><path d="M15 468L50 540L111 504Z" fill="#297ea6" stroke="#297ea6"></path><path d="M93 540L50 540L105 550Z" fill="#081a28" stroke="#081a28"></path><path d="M105 550L50 540L158 586Z" fill="#081a28" stroke="#081a28"></path><path d="M965 117L960 67L889 94Z" fill="#00101c" stroke="#00101c"></path><path d="M965 117L963 59L960 67Z" fill="#112e42" stroke="#112e42"></path><path d="M960 67L960 44L889 94Z" fill="#277297" stroke="#277297"></path><path d="M963 59L960 44L960 67Z" fill="#0c2435" stroke="#0c2435"></path><path d="M963 59L960 35L960 44Z" fill="#081a28" stroke="#081a28"></path><path d="M960 44L960 35L906 0Z" fill="#00101c" stroke="#00101c"></path><path d="M960 440L1000 381L960 432Z" fill="#112e42" stroke="#112e42"></path><path d="M965 117L1000 381L963 59Z" fill="#112e42" stroke="#112e42"></path><path d="M25 0L0 53L41 54Z" fill="#297ea6" stroke="#297ea6"></path><path d="M41 54L0 53L53 105Z" fill="#0c2435" stroke="#0c2435"></path><path d="M2 120L-50 260L0 186Z" fill="#00101c" stroke="#00101c"></path><path d="M0 -43L25 0L74 0Z" fill="#15384f" stroke="#15384f"></path><path d="M74 0L25 0L41 54Z" fill="#205a7a" stroke="#205a7a"></path><path d="M0 406L0 490L15 468Z" fill="#0c2435" stroke="#0c2435"></path><path d="M15 468L0 504L50 540Z" fill="#081a28" stroke="#081a28"></path><path d="M0 53L-50 260L2 120Z" fill="#19435d" stroke="#19435d"></path><path d="M0 186L-50 260L0 196Z" fill="#19435d" stroke="#19435d"></path><path d="M0 196L-50 260L40 237Z" fill="#15384f" stroke="#15384f"></path><path d="M0 322L-50 260L0 329Z" fill="#112e42" stroke="#112e42"></path><path d="M0 329L-50 260L0 382Z" fill="#081a28" stroke="#081a28"></path><path d="M0 382L-50 260L0 401Z" fill="#0c2435" stroke="#0c2435"></path><path d="M0 401L-50 260L0 406Z" fill="#246688" stroke="#246688"></path><path d="M0 406L-50 260L0 490Z" fill="#205a7a" stroke="#205a7a"></path><path d="M-50 260L0 504L0 490Z" fill="#15384f" stroke="#15384f"></path><path d="M0 490L0 504L15 468Z" fill="#0c2435" stroke="#0c2435"></path><path d="M960 35L960 0L906 0Z" fill="#0c2435" stroke="#0c2435"></path><path d="M906 0L960 0L816 -12Z" fill="#00101c" stroke="#00101c"></path><path d="M963 59L960 0L960 35Z" fill="#0c2435" stroke="#0c2435"></path><path d="M1000 381L960 0L963 59Z" fill="#081a28" stroke="#081a28"></path><path d="M362 580L960 540L721 547Z" fill="#00101c" stroke="#00101c"></path><path d="M884 540L960 540L900 497Z" fill="#246688" stroke="#246688"></path><path d="M960 440L960 540L1000 381Z" fill="#246688" stroke="#246688"></path><path d="M25 0L0 0L0 53Z" fill="#19435d" stroke="#19435d"></path><path d="M0 53L0 0L-50 260Z" fill="#15384f" stroke="#15384f"></path><path d="M0 -43L0 0L25 0Z" fill="#15384f" stroke="#15384f"></path><path d="M-50 260L0 540L0 504Z" fill="#297ea6" stroke="#297ea6"></path><path d="M0 504L0 540L50 540Z" fill="#1d4e6b" stroke="#1d4e6b"></path><path d="M50 540L0 540L158 586Z" fill="#277297" stroke="#277297"></path><path d="M179 -28L0 -43L74 0Z" fill="#297ea6" stroke="#297ea6"></path><path d="M0 0L0 -43L-50 260Z" fill="#19435d" stroke="#19435d"></path><path d="M651 -42L0 -43L179 -28Z" fill="#081a28" stroke="#081a28"></path></g></svg>