<svg xmlns="http://www.w3.org/2000/svg" version="1.1" xmlns:xlink="http://www.w3.org/1999/xlink" xmlns:svgjs="http://svgjs.dev/svgjs" viewBox="0 0 800 800"><defs><linearGradient x1="50%" y1="0%" x2="50%" y2="100%" id="ccchaos-grad"><stop stop-color="hsl(206, 75%, 49%)" stop-opacity="1" offset="0%"></stop><stop stop-color="hsl(331, 90%, 56%)" stop-opacity="1" offset="100%"></stop></linearGradient></defs><g stroke-width="2.5" stroke="url(#ccchaos-grad)" fill="none" stroke-linecap="round"><path d="M411.27 85.69C422.33 83.38 433.72 81.78 445.41 80.89 457.11 80.24 469.09 80.4 481.24 81.36 493.32 82.66 505.44 84.8 517.39 87.74 529 91.05 540.13 95.13 550.46 99.96 560.01 105.09 568.34 110.9 575.13 117.31 580.77 123.94 584.66 131.11 586.75 138.73 587.98 146.46 587.91 154.58 587.03 163.02 586.74 171.47 587.01 180.18 588.7 189.1 593.06 197.96 600.15 207 610.41 216.18 623.87 225.25 639.96 234.47 657.73 243.8 675.83 253 692.69 262.34 706.55 271.8 716.18 281.15 720.35 290.64 718.57 300.29 712.06 309.84 701.53 319.57 689.03 329.48 677.87 339.32 669.78 349.38 666.89 359.64 670.83 369.87 681.04 380.34 696.18 391.04 714.04 401.72 731.15 412.66 744.13 423.83 750.74 435 749.17 446.16 739.93 457.27 725.17 468.37 707.2 479.41 689.19 490.35 674.16 501.27 664 512.06 659.69 522.65 661.63 533.19 668.22 543.48 677.55 553.46 688.21 563.31 697.24 572.78 702.85 581.79 704.52 590.6 701.01 598.86 692.61 606.5 680.27 613.86 664.82 620.52 647.68 626.43 630.05 632 613.12 636.77 597.8 640.7 584.59 644.32 573.8 647.13 565.29 649.16 552.08 652.45 538.69 653.72 531.95 654.17 526.65 655.24 520.18 656.64 512.64 658.48 504.69 661.29 495.84 664.68 486.26 668.64 476.46 673.61 466.13 679.1 455.38 685.02 444.58 691.67 433.48 698.49 422.14 705.25 410.8 712.21 399.5 718.53 388.26 724.02 376.98 729.1 365.7 733 354.39 735.59 342.99 737.36 331.49 737.65 319.87 736.47 308.14 734.32 296.28 730.71 284.33 725.75 272.38 719.93 260.47 712.93 248.72 704.89 237.27 696.27 226.25 686.85 215.88 676.8 206.18 666.49 197.4 655.78 189.7 644.8 182.82 633.83 177.04 622.75 172.31 611.67 168.02 600.77 164.37 589.94 161.11 579.24 157.44 568.79 153.58 558.47 149.28 548.29 143.96 538.37 138.03 528.54 131.59 518.79 124.46 509.26 117.36 499.74 110.67 490.23 104.41 480.86 99.29 471.42 95.58 461.92 92.94 452.49 91.73 442.93 91.76 433.24 92.17 423.58 93.05 413.75 93.99 403.76 94.08 393.78 93.65 383.62 92.68 373.3 90.79 362.99 88.92 352.76 87.5 342.65 86.42 332.55 86.62 322.6 88.28 312.82 91.02 303.07 95.2 293.52 100.51 284.22 106.2 274.97 112.26 266 118.28 257.36 123.54 248.78 128.25 240.55 132.35 232.71 135.47 224.95 138.27 217.59 141.04 210.67 143.64 203.83 146.89 197.42 151.05 191.46 155.93 185.56 162.09 180.08 169.49 175.04 177.82 169.99 187.22 165.33 197.45 161.06 208.17 156.69 219.3 152.64 230.61 148.9 241.84 144.96 252.94 141.26 263.83 137.77 274.32 134.01 284.53 130.4 294.51 126.94 304.05 123.14 313.48 119.47 322.89 115.94 331.99 112.07 341.22 108.35 350.68 104.82 359.97 101.03 369.62 97.5 379.69 94.29 389.69 90.97 400.2 88.07 411.26 85.69" stroke-dasharray="3 7" transform="rotate(0, 400, 400)" opacity="0.60"></path><path d="M419.23 97.61C430.06 95.3 441.02 93.67 452.07 92.73 463.11 92.01 474.16 92.06 485.11 92.88 495.92 94.02 506.45 95.96 516.5 98.67 526.13 101.72 535 105.53 542.85 110.04 549.98 114.87 555.83 120.35 560.24 126.43 563.87 132.74 566.12 139.58 567.16 146.88 568.03 154.31 568.39 162.13 568.79 170.29 570.47 178.48 573.39 186.95 578.23 195.65 585.76 204.31 595.91 213.17 608.72 222.18 623.84 231.11 640.53 240.19 657.73 249.38 674.12 258.48 688.35 267.7 698.96 277.04 705.25 286.29 706.37 295.66 702.31 305.17 694.55 314.6 683.91 324.18 672.35 333.92 662.82 343.6 656.68 353.45 655.6 363.49 660.78 373.49 671.47 383.69 686.33 394.08 703.34 404.46 719.42 415.04 731.6 425.82 737.99 436.6 736.91 447.31 728.76 457.94 715.36 468.56 698.62 479.08 681.27 489.45 666.07 499.79 654.81 509.96 648.63 519.9 648.19 529.77 652.42 539.36 659.86 548.61 669.46 557.73 678.58 566.45 685.5 574.69 689.58 582.74 689.28 590.25 684.47 597.14 675.77 603.78 663.48 609.76 648.7 615.02 632.47 620 615.84 624.25 599.78 627.73 584.9 630.98 571.76 633.5 560.54 635.34 551.36 637.05 543.93 638.19 537.89 638.81 531.31 639.75 520.41 641.05 514.18 642.07 509.72 643.48 504.35 645.22 498.06 647.36 491.51 650.39 484.07 653.92 475.8 657.96 467.35 662.9 458.21 668.28 448.45 674.02 438.63 680.41 428.3 686.91 417.51 693.33 406.72 699.94 395.76 705.94 384.68 711.17 373.59 716.04 362.36 719.83 351 722.41 339.64 724.28 328.13 724.79 316.53 723.93 304.95 722.21 293.33 719.12 281.76 714.76 270.38 709.61 259.21 703.31 248.43 696.01 238.11 688.14 228.4 679.45 219.5 670.12 211.29 660.48 204.05 650.38 197.85 639.96 192.3 629.49 187.66 618.84 183.82 608.12 180.11 597.51 176.74 586.91 173.45 576.38 169.52 566.05 165.2 555.81 160.32 545.68 154.43 535.76 147.98 525.93 141.13 516.19 133.81 506.63 126.7 497.1 120.18 487.61 114.27 478.25 109.6 468.86 106.39 459.44 104.24 450.1 103.48 440.68 103.88 431.18 104.56 421.71 105.6 412.12 106.62 402.43 106.73 392.74 106.27 382.93 105.21 373.02 103.2 363.1 101.16 353.31 99.51 343.68 98.18 334.06 98.06 324.6 99.38 315.34 101.8 306.11 105.7 297.1 110.82 288.35 116.46 279.64 122.61 271.22 128.86 263.12 134.49 255.07 139.63 247.37 144.18 240.04 147.68 232.77 150.72 225.89 153.51 219.42 155.87 213 158.59 206.99 161.94 201.4 165.77 195.82 170.69 190.64 176.76 185.86 183.72 181.04 191.83 176.57 200.92 172.45 210.7 168.2 221.14 164.25 232.01 160.57 243.09 156.68 254.28 153 265.45 149.52 276.45 145.76 287.28 142.14 297.92 138.66 308.25 134.87 318.42 131.19 328.48 127.64 338.28 123.78 348.08 120.08 357.96 116.57 367.69 112.81 377.61 109.31 387.8 106.13 397.92 102.85 408.39 99.98 419.22 97.61" stroke-dasharray="2 0" transform="rotate(4.04, 400, 400)" opacity="0.19"></path><path d="M422.47 109.52C432.95 107.23 443.31 105.58 453.52 104.59 463.68 103.8 473.6 103.75 483.15 104.44 492.53 105.41 501.37 107.15 509.5 109.63 517.26 112.43 524.1 115.96 529.89 120.18 535.16 124.69 539.29 129.84 542.28 135.57 544.94 141.54 546.73 148.03 547.95 154.99 549.61 162.09 551.46 169.59 554.02 177.43 558.24 185.33 564.08 193.53 571.97 201.96 582.23 210.39 594.69 219.02 609.08 227.82 624.79 236.57 641.05 245.46 656.74 254.48 670.77 263.43 681.99 272.5 689.3 281.68 692.49 290.79 691.03 300.01 685.23 309.35 676.78 318.63 666.48 328.04 656.15 337.57 648.36 347.06 644.12 356.7 644.71 366.48 650.94 376.23 661.96 386.15 676.45 396.21 692.59 406.27 707.66 416.49 719.07 426.85 725.23 437.21 724.6 447.47 717.48 457.6 705.4 467.72 689.91 477.7 673.37 487.49 658.22 497.26 646.16 506.81 638.4 516.09 635.78 525.31 637.65 534.22 643 542.75 651.09 551.18 659.67 559.18 667.13 566.69 672.86 574.04 675.14 580.85 673.53 587.07 668.38 593.07 659.53 598.44 647.72 603.15 633.81 607.63 618.59 611.43 603 614.56 587.64 617.51 573.22 619.84 560.13 621.55 548.54 623.22 538.54 624.4 529.98 625.16 519.81 626.41 504.28 628.63 497.17 630.19 492.58 631.93 487.45 633.97 481.66 636.37 475.81 639.58 469.2 643.23 461.83 647.31 454.35 652.2 446.14 657.46 437.25 663.01 428.31 669.13 418.74 675.33 408.6 681.42 398.45 687.68 388.01 693.37 377.33 698.33 366.69 702.99 355.83 706.65 344.82 709.22 333.87 711.16 322.81 711.85 311.73 711.28 300.79 709.94 289.93 707.34 279.27 703.55 268.93 699.02 258.97 693.4 249.55 686.82 240.66 679.67 232.49 671.72 225.18 663.1 218.48 654.16 212.68 644.71 207.78 634.9 203.28 624.98 199.45 614.83 196.13 604.54 192.63 594.31 189.19 584.03 185.57 573.76 181.15 563.63 176.21 553.56 170.68 543.56 164.22 533.73 157.31 523.98 150.18 514.31 142.8 504.79 135.82 495.31 129.62 485.89 124.16 476.58 120.02 467.28 117.36 457.97 115.73 448.74 115.41 439.47 116.14 430.16 117.05 420.88 118.22 411.54 119.28 402.14 119.39 392.74 118.88 383.27 117.74 373.74 115.63 364.21 113.45 354.84 111.6 345.66 110.01 336.48 109.59 327.5 110.55 318.74 112.61 310 116.17 301.49 121.03 293.26 126.52 285.06 132.67 277.14 139.07 269.55 145.02 261.99 150.6 254.77 155.63 247.91 159.63 241.09 163.06 234.64 166.08 228.57 168.46 222.53 170.91 216.87 173.73 211.59 176.72 206.3 180.57 201.38 185.4 196.81 190.97 192.18 197.66 187.87 205.39 183.86 213.87 179.73 223.19 175.84 233.16 172.2 243.55 168.35 254.31 164.68 265.24 161.19 276.25 157.43 287.25 153.81 298.16 150.31 308.94 146.51 319.59 142.83 330.1 139.28 340.45 135.45 350.72 131.76 360.95 128.27 371.06 124.56 381.22 121.1 391.45 117.96 401.65 114.71 411.99 111.88 422.46 109.52" stroke-dasharray="7 8" transform="rotate(8.08, 400, 400)" opacity="0.95"></path><path d="M420.21 121.44C430.2 119.16 439.86 117.5 449.13 116.47 458.36 115.62 467.11 115.48 475.31 116.03 483.35 116.85 490.7 118.4 497.26 120.65 503.54 123.2 508.94 126.46 513.4 130.36 517.62 134.55 520.99 139.37 523.63 144.75 526.38 150.36 528.8 156.49 531.23 163.08 534.54 169.83 538.54 176.98 543.68 184.48 550.55 192.06 559.1 199.94 569.52 208.07 581.76 216.22 595.57 224.59 610.48 233.13 625.75 241.65 640.63 250.32 654.11 259.12 665.35 267.87 673.42 276.75 677.59 285.73 678.06 294.66 674.55 303.69 667.6 312.83 658.98 321.92 649.41 331.12 640.53 340.42 634.52 349.7 632.1 359.09 634.18 368.59 641.28 378.07 652.49 387.68 666.53 397.39 681.79 407.11 695.87 416.94 706.54 426.87 712.47 436.8 712.24 446.59 706.07 456.22 695.27 465.83 681.05 475.27 665.42 484.49 650.56 493.67 637.98 502.61 628.95 511.26 624.39 519.84 624.01 528.09 627.17 535.95 633.43 543.71 640.92 551.04 648.24 557.89 656.89 567.68 655.26 584.25 643.97 590.91 633 594.98 620.07 598.43 605.98 601.29 591.34 604.02 576.8 606.21 562.89 607.88 549.83 609.56 537.95 610.84 527.3 611.76 517.87 612.88 509.54 613.81 502.06 614.62 495.5 615.85 489.39 617.13 483.46 618.54 477.97 620.58 472.32 622.88 466.33 625.5 460.45 628.86 454.06 632.6 447.09 636.7 440.09 641.52 432.47 646.65 424.22 651.99 415.94 657.85 407.05 663.74 397.58 669.5 388.1 675.42 378.32 680.8 368.29 685.51 358.3 689.96 348.12 693.49 337.84 696.02 327.66 698 317.46 698.84 307.34 698.54 297.43 697.55 287.74 695.38 278.38 692.11 269.4 688.17 260.91 683.2 253.05 677.3 245.68 670.86 239.05 663.64 233.22 655.74 227.84 647.5 223.2 638.73 219.25 629.56 215.42 620.24 211.99 610.64 208.77 600.86 205.13 591.07 201.3 581.18 197.11 571.26 192.04 561.42 186.42 551.6 180.24 541.82 173.29 532.17 166.05 522.57 158.78 513.03 151.51 503.63 144.82 494.27 139.06 484.96 134.16 475.76 130.62 466.58 128.53 457.42 127.42 448.33 127.51 439.23 128.53 430.13 129.63 421.06 130.89 411.97 131.96 402.85 132.05 393.74 131.48 384.6 130.27 375.44 128.08 366.28 125.77 357.32 123.75 348.57 121.94 339.81 121.21 331.28 121.81 322.98 123.48 314.7 126.65 306.66 131.16 298.91 136.42 291.17 142.47 283.72 148.92 276.59 155.12 269.49 161.08 262.7 166.59 256.27 171.14 249.85 175.09 243.78 178.52 238.07 182.4 229.68 190.19 214.59 195.49 207.85 199.8 203.38 205.1 199.19 211.39 195.28 218.39 191.22 226.32 187.39 235.02 183.77 244.29 179.94 254.1 176.28 264.29 172.78 274.76 169.02 285.39 165.38 296.09 161.87 306.83 158.08 317.52 154.4 328.12 150.86 338.67 147.05 349.11 143.39 359.43 139.93 369.72 136.27 379.92 132.86 390.04 129.76 400.15 126.57 410.22 123.77 420.2 121.44" stroke-dasharray="2 11" transform="rotate(12.12, 400, 400)" opacity="0.60"></path><path d="M413 133.35C422.4 131.1 431.31 129.43 439.71 128.36 448.05 127.47 455.8 127.24 462.92 127.66 469.91 128.34 476.2 129.7 481.76 131.73 489.52 135.52 501.7 146.72 506.74 153.98 510.44 159.23 514.3 164.98 518.61 171.19 524 177.57 530.38 184.35 538.04 191.47 547.24 198.7 557.92 206.24 570.04 214.03 583.32 221.86 597.43 229.92 611.81 238.17 625.74 246.41 638.53 254.81 649.31 263.35 657.57 271.86 662.59 280.5 663.96 289.24 662.2 297.94 657.21 306.75 649.68 315.64 641.34 324.5 632.83 333.46 625.55 342.5 621.33 351.52 620.6 360.63 623.99 369.82 631.79 379.01 643.05 388.28 656.57 397.63 670.94 406.98 684.06 416.4 694.02 425.89 699.7 435.37 699.83 444.69 694.55 453.8 684.97 462.91 672.02 471.8 657.41 480.45 643.01 489.06 630.2 497.41 620.2 505.44 613.98 513.41 611.54 521.04 612.51 528.27 616.73 535.41 622.71 542.12 629.29 548.37 638.6 557.3 643.55 572.36 636.99 578.42 629.21 582.14 619.11 585.33 607.33 587.99 594.39 590.58 580.84 592.7 567.23 594.38 553.81 596.12 541.01 597.52 529.05 598.63 517.94 599.97 507.78 601.17 498.49 602.28 490.04 603.81 482.23 605.4 474.87 607.12 468.04 609.41 461.36 611.95 454.66 614.76 448.19 618.24 441.49 622.03 434.47 626.13 427.49 630.86 420.09 635.83 412.22 640.97 404.34 646.55 395.98 652.14 387.15 657.59 378.32 663.18 369.25 668.25 360.02 672.7 350.84 676.93 341.56 680.32 332.28 682.81 323.12 684.81 314.05 685.78 305.18 685.7 296.54 685.01 288.22 683.25 280.34 680.46 272.8 677.07 265.8 672.7 259.45 667.45 253.47 661.7 248.15 655.18 243.51 647.99 239.1 640.46 235.21 632.39 231.77 623.89 228.18 615.2 224.72 606.19 221.23 596.96 217.13 587.68 212.68 578.25 207.77 568.75 202 559.29 195.71 549.79 188.97 540.31 181.66 530.91 174.26 521.54 167.04 512.23 160.04 503 153.79 493.82 148.6 484.7 144.34 475.65 141.43 466.64 139.94 457.67 139.33 448.76 139.8 439.87 141.07 430.99 142.31 422.15 143.62 413.31 144.66 404.49 144.71 395.68 144.08 386.86 142.8 378.06 140.54 369.26 138.14 360.68 135.97 352.34 133.95 343.99 132.94 335.87 133.17 328.01 134.43 320.16 137.17 312.56 141.26 305.24 146.2 297.93 152.04 290.91 158.44 284.2 164.77 277.5 171.03 271.11 176.97 265.04 182.09 258.98 186.63 253.25 190.6 247.84 195.07 239.87 202.61 225.44 206.94 218.93 210.24 214.59 214.34 210.5 219.29 206.65 224.82 202.66 231.26 198.86 238.51 195.26 246.34 191.44 254.85 187.79 263.88 184.27 273.31 180.51 283.08 176.87 293.06 173.35 303.23 169.56 313.48 165.89 323.71 162.36 334 158.59 344.22 154.97 354.3 151.55 364.41 147.95 374.38 144.59 384.17 141.54 393.97 138.41 403.6 135.66 412.99 133.35" stroke-dasharray="9 1" transform="rotate(16.16, 400, 400)" opacity="0.58"></path><path d="M402.61 145.26C411.36 143.04 419.59 141.38 427.25 140.28 434.88 139.34 441.91 139.03 448.34 139.33 457.61 140.46 473.28 146.29 480.01 150.94 484.61 154.49 489.1 158.62 493.67 163.28 498.89 168.16 504.57 173.53 510.98 179.34 518.47 185.33 527 191.71 536.69 198.45 547.56 205.3 559.51 212.45 572.35 219.87 585.65 227.36 599.07 235.07 612.03 242.97 623.92 250.9 634.14 258.99 642.02 267.22 647.35 275.44 649.61 283.8 648.64 292.25 645.22 300.68 639.33 309.21 631.74 317.82 624.09 326.41 616.88 335.09 611.28 343.83 608.79 352.56 609.61 361.36 614.11 370.22 622.43 379.07 633.62 387.99 646.56 396.95 660.04 405.91 672.22 414.91 681.49 423.94 686.92 432.97 687.37 441.8 682.91 450.4 674.5 459 662.81 467.36 649.27 475.45 635.52 483.51 622.73 491.28 612.07 498.73 604.51 506.12 600.23 513.17 599.13 519.82 601.23 526.39 605.42 532.55 610.76 538.26 619.69 546.43 629.08 560.21 626.63 565.78 621.96 569.24 614.9 572.23 605.87 574.76 595.36 577.27 583.69 579.38 571.36 581.11 558.66 582.94 546.01 584.49 533.72 585.82 521.82 587.39 510.57 588.84 500.02 590.25 490.1 592.05 480.82 593.92 472.11 595.92 463.89 598.44 456.04 601.17 448.4 604.13 441.05 607.69 433.73 611.52 426.33 615.58 419.05 620.2 411.56 625.01 403.84 629.93 396.14 635.25 388.15 640.54 379.87 645.67 371.58 650.93 363.23 655.71 354.85 659.91 346.52 663.92 338.22 667.17 330.05 669.59 321.99 671.59 314.13 672.66 306.59 672.78 299.23 672.36 292.27 670.96 285.79 668.61 279.56 665.71 273.87 661.91 268.75 657.28 263.83 652.19 259.44 646.35 255.54 639.85 251.64 633.02 248.04 625.65 244.64 617.82 240.88 609.8 237.03 601.42 232.96 592.78 228.18 584.06 222.99 575.15 217.31 566.13 210.87 557.11 204.02 548.01 196.88 538.9 189.41 529.84 182.05 520.77 175.08 511.73 168.52 502.77 162.86 493.83 158.33 484.94 154.76 476.12 152.52 467.33 151.6 458.6 151.46 449.91 152.26 441.25 153.73 432.63 155.07 424.04 156.38 415.48 157.38 406.95 157.36 398.44 156.67 389.95 155.32 381.5 153.02 373.06 150.55 364.85 148.26 356.89 146.06 348.92 144.78 341.2 144.66 333.74 145.49 326.28 147.76 319.08 151.39 312.17 155.91 305.25 161.44 298.61 167.66 292.28 174 285.94 180.45 279.89 186.73 274.16 192.36 268.41 197.49 262.97 202.07 257.83 207.4 250.21 215.57 236.33 219.45 230 223.7 223.76 235.93 212.12 244.25 206.63 250.56 202.83 257.59 199.17 265.22 195.65 273.29 191.89 281.82 188.24 290.69 184.72 299.83 180.95 309.18 177.3 318.62 173.79 328.21 170.06 337.79 166.49 347.29 163.12 356.86 159.58 366.3 156.29 375.54 153.3 384.81 150.24 393.85 147.54 402.6 145.27" stroke-dasharray="2 4" transform="rotate(20.200000000000003, 400, 400)" opacity="0.96"></path><path d="M391.58 157.18C399.69 155 407.34 153.34 414.49 152.22 421.63 151.25 428.29 150.86 434.47 151.05 440.67 151.45 446.45 152.46 451.88 154.06 457.44 155.91 462.79 158.34 468.08 161.35 473.73 164.58 479.56 168.37 485.75 172.66 492.61 177.17 500.11 182.15 508.4 187.56 517.57 193.14 527.65 199.12 538.62 205.44 550.27 211.88 562.53 218.64 575.07 225.66 587.46 232.75 599.36 240.08 610.22 247.61 619.64 255.18 627.09 262.92 632.1 270.8 634.77 278.69 634.7 286.71 631.95 294.83 627.45 302.95 621.22 311.16 614.05 319.45 607.4 327.73 601.66 336.08 597.77 344.49 596.9 352.89 599.09 361.35 604.52 369.84 613.19 378.34 624.19 386.87 636.49 395.42 649.08 403.97 660.37 412.54 668.96 421.1 674.14 429.66 674.86 438 671.16 446.1 663.85 454.19 653.4 462.03 640.99 469.58 628.02 477.11 615.49 484.34 604.46 491.24 595.89 498.1 590.07 504.6 587.08 510.73 587.1 516.79 589.34 522.45 593.1 527.69 606.56 541.56 609.08 557.81 600.83 561.7 593.1 564.17 583.88 566.31 573.58 568.14 562.5 570.08 550.97 571.81 539.32 573.35 527.63 575.14 516.2 576.85 505.19 578.53 494.51 580.58 484.34 582.7 474.69 584.93 465.41 587.64 456.57 590.53 448.08 593.62 439.85 597.23 431.84 601.05 423.98 605.06 416.24 609.56 408.53 614.19 400.81 618.89 393.11 623.94 385.35 628.93 377.51 633.76 369.67 638.7 361.94 643.18 354.36 647.13 346.8 650.92 339.42 654.02 332.3 656.36 325.24 658.36 318.5 659.5 312.13 659.77 302.96 659.05 287.05 652.48 280.35 646.79 276.04 642.31 272.1 637.13 268.45 631.31 264.6 625.16 260.85 618.48 257.07 611.33 252.8 603.98 248.3 596.25 243.46 588.24 237.93 580.12 231.97 571.78 225.59 563.28 218.63 554.76 211.41 546.13 204.09 537.45 196.68 528.79 189.58 520.09 183.05 511.41 177.1 502.77 172.13 494.14 168.34 485.55 165.5 477 163.92 468.49 163.55 460.03 163.83 451.6 164.91 443.22 166.52 434.88 167.9 426.58 169.18 418.31 170.1 410.09 170.01 401.89 169.26 393.73 167.85 385.63 165.52 377.53 163 369.68 160.62 362.09 158.27 354.49 156.74 347.14 156.28 340.06 156.69 332.96 158.48 326.13 161.59 319.58 165.63 313.02 170.74 306.73 176.66 300.73 182.87 294.71 189.36 288.97 195.85 283.52 201.89 278.05 207.55 272.85 212.74 267.94 219.06 260.62 228.59 247.19 232.56 241.01 236.31 234.88 246.04 223.35 252.54 217.87 257.46 214.08 263.04 210.42 269.24 206.89 275.83 203.14 282.94 199.5 290.48 195.98 298.32 192.24 306.46 188.62 314.81 185.14 323.34 181.47 331.97 177.96 340.6 174.64 349.33 171.18 358 167.96 366.52 165.03 375.08 162.05 383.45 159.41 391.57 157.18" stroke-dasharray="4 9" transform="rotate(24.24, 400, 400)" opacity="0.80"></path><path d="M382.6 169.09C390.15 166.96 397.36 165.31 404.23 164.18 411.11 163.17 417.68 162.72 423.97 162.81 430.32 163.09 436.48 163.93 442.53 165.33 448.78 166.95 455.07 169.13 461.52 171.84 468.37 174.77 475.58 178.22 483.27 182.15 491.54 186.28 500.45 190.87 510.04 195.87 520.22 201.04 531.03 206.59 542.33 212.49 553.85 218.51 565.45 224.83 576.81 231.43 587.55 238.11 597.33 245.02 605.7 252.14 612.48 259.31 617.22 266.66 619.63 274.15 620.07 281.67 618.22 289.32 614.3 297.07 609.29 304.83 603.24 312.69 596.85 320.61 591.45 328.54 587.27 336.53 585.03 344.56 585.64 352.6 589.01 360.68 595.17 368.78 604.03 376.89 614.73 385.01 626.37 393.13 638.07 401.26 648.48 409.38 656.43 417.47 661.35 425.55 662.3 433.41 659.3 441.01 653.02 448.61 643.77 455.94 632.52 462.98 620.45 470.01 608.38 476.73 597.27 483.12 588.01 489.48 580.96 495.5 576.34 501.15 574.56 509.37 582.42 523.78 588.63 529.94 595.19 540.35 583.64 552.47 572.49 555.51 563.65 557.59 553.97 559.49 543.77 561.24 533.18 563.24 522.48 565.19 511.86 567.12 501.27 569.39 490.96 571.73 481.01 574.16 471.26 577.03 461.88 580.04 452.89 583.21 444.07 586.83 435.57 590.63 427.34 594.56 419.21 598.92 411.28 603.36 403.52 607.84 395.79 612.62 388.17 617.32 380.66 621.84 373.15 626.47 365.92 630.67 358.98 634.37 352.04 637.94 345.41 640.88 339.11 643.14 329.9 645.7 313.43 646.31 306.22 644.32 299.37 640.91 287.04 629.81 281.2 622.35 277 616.86 272.73 610.85 268.29 604.39 263.31 597.7 258.03 590.64 252.39 583.27 246.14 575.78 239.54 568.03 232.64 560.11 225.36 552.13 218.01 544.02 210.77 535.82 203.65 527.62 197.03 519.36 191.13 511.09 185.91 502.83 181.73 494.57 178.72 486.33 176.61 478.12 175.65 469.94 175.78 461.8 176.42 453.69 177.71 445.61 179.41 437.59 180.79 429.59 182.01 421.64 182.82 413.75 182.65 405.87 181.83 398.05 180.38 390.3 178.04 382.55 175.49 375.05 173.04 367.8 170.57 360.55 168.83 353.55 168.05 346.81 168.06 340.07 169.34 333.57 171.91 327.35 175.41 321.11 180.02 315.13 185.52 309.42 191.45 303.69 197.82 298.22 204.37 293.02 210.67 287.78 216.75 282.8 222.48 278.07 229.79 271.02 241.18 257.96 245.69 251.9 249.53 245.85 257.99 234.41 263.22 228.95 267.04 225.18 271.43 221.52 276.38 217.99 281.59 214.26 287.33 210.64 293.54 207.13 299.99 203.43 306.83 199.85 313.96 196.42 321.27 192.81 328.78 189.36 336.4 186.12 344.12 182.74 351.88 179.61 359.61 176.75 367.37 173.85 375.05 171.28 382.59 169.1" stroke-dasharray="4 0" transform="rotate(28.28, 400, 400)" opacity="0.21"></path><path d="M377.89 181.01C384.95 178.92 391.86 177.3 398.63 176.16 405.41 175.13 412.08 174.62 418.69 174.61 425.38 174.77 432.09 175.47 438.88 176.68 445.89 178.09 453.11 180.02 460.62 182.44 468.48 185.07 476.75 188.19 485.5 191.76 494.65 195.52 504.3 199.71 514.4 204.3 524.76 209.05 535.4 214.18 546.13 219.63 556.66 225.21 566.85 231.1 576.35 237.25 584.95 243.49 592.31 249.96 598.08 256.64 602.32 263.39 604.63 270.31 604.9 277.38 603.63 284.49 600.6 291.73 596.1 299.07 591.11 306.43 585.65 313.89 580.36 321.41 576.35 328.94 573.74 336.54 573.06 344.17 574.99 351.81 579.34 359.48 586.04 367.16 594.94 374.85 605.25 382.55 616.18 390.23 627.01 397.91 636.57 405.57 643.9 413.18 648.56 420.79 649.71 428.17 647.33 435.29 642.01 442.4 633.92 449.24 623.84 455.81 612.75 462.35 601.32 468.6 590.38 474.53 580.76 480.43 572.81 486.01 566.86 491.24 562.45 498.86 565.16 512.27 569.84 518.05 577.82 528.01 574.65 540.05 567.24 543.26 560.85 545.48 553.43 547.55 545.21 549.51 536.4 551.71 527.15 553.87 517.66 556.01 507.97 558.48 498.28 561 488.73 563.6 479.2 566.58 469.89 569.68 460.88 572.89 451.95 576.51 443.32 580.25 434.98 584.08 426.72 588.28 418.72 592.53 410.98 596.78 403.28 601.28 395.8 605.7 388.54 609.93 381.29 614.25 374.42 618.17 367.93 621.63 361.42 624.98 355.29 627.76 349.53 629.92 341.05 632.44 325.84 633.47 319.02 631.91 312.28 629.09 299.33 619.53 292.72 612.97 287.9 608.12 282.92 602.76 277.69 596.95 271.96 590.93 265.92 584.53 259.58 577.81 252.78 570.96 245.75 563.84 238.59 556.51 231.27 549.12 224.07 541.56 217.17 533.9 210.58 526.2 204.62 518.43 199.5 510.61 195.1 502.8 191.75 494.96 189.53 487.12 188.12 479.3 187.74 471.49 188.3 463.71 189.23 455.96 190.67 448.23 192.4 440.56 193.74 432.9 194.85 425.29 195.54 417.74 195.28 410.2 194.39 402.73 192.91 395.32 190.57 387.92 188.02 380.77 185.53 373.86 182.98 366.95 181.05 360.29 179.98 353.87 179.6 347.45 180.4 341.27 182.41 335.34 185.32 329.4 189.35 323.7 194.33 318.25 199.85 312.78 205.94 307.54 212.38 302.56 218.75 297.53 225.08 292.73 231.21 288.16 236.81 283.53 242.03 279.12 246.83 274.92 252.86 268.58 262.67 256.65 267.01 251.01 271.11 245.3 280.66 234.27 286.47 228.93 290.62 225.23 295.24 221.64 300.31 218.17 305.53 214.52 311.17 210.99 317.16 207.61 323.27 204.08 329.67 200.72 336.29 197.55 342.99 194.27 349.84 191.22 356.8 188.45 363.78 185.63 370.82 183.14 377.88 181.01" stroke-dasharray="5 9" transform="rotate(32.32, 400, 400)" opacity="0.69"></path><path d="M378.59 192.92C385.27 190.89 391.98 189.3 398.72 188.16 405.48 187.12 412.32 186.55 419.25 186.46 426.27 186.52 433.46 187.07 440.86 188.1 448.44 189.3 456.31 191 464.5 193.15 472.92 195.49 481.71 198.28 490.84 201.5 500.17 204.89 509.77 208.7 519.55 212.88 529.29 217.22 538.96 221.91 548.35 226.92 557.25 232.05 565.49 237.48 572.77 243.17 579.03 248.95 583.94 254.97 587.3 261.19 589.31 267.47 589.66 273.94 588.33 280.56 585.97 287.22 582.35 294.02 577.82 300.92 573.3 307.85 568.77 314.88 564.77 321.96 562.21 329.07 561.11 336.24 561.85 343.44 564.91 350.65 570.03 357.89 577.08 365.13 585.88 372.38 595.73 379.63 605.92 386.85 615.89 394.08 624.64 401.27 631.38 408.41 635.77 415.54 637.07 422.44 635.26 429.09 630.83 435.73 623.84 442.11 614.91 448.22 604.87 454.31 594.22 460.12 583.69 465.63 573.99 471.12 565.49 476.3 558.54 481.17 550.65 494.57 556.21 511.5 559.95 516.07 562.22 524.24 550.97 534.91 542.35 538.18 535.65 540.55 528.28 542.89 520.44 545.22 512.25 547.85 503.8 550.51 495.26 553.23 486.58 556.29 477.95 559.44 469.45 562.67 460.94 566.24 452.61 569.9 444.52 573.62 436.47 577.65 428.64 581.7 421.09 585.71 413.55 589.94 406.26 594.07 399.23 598.02 392.2 602.04 385.58 605.68 379.35 608.9 373.1 612.03 367.22 614.65 361.69 616.7 353.48 619.17 338.43 620.51 331.39 619.34 324.23 617.04 309.76 608.89 302.11 603.17 296.59 598.92 290.85 594.18 284.89 589.01 278.51 583.64 271.9 577.89 265.08 571.82 258 565.61 250.84 559.12 243.73 552.41 236.66 545.62 229.89 538.65 223.57 531.55 217.71 524.4 212.57 517.15 208.32 509.83 204.81 502.51 202.3 495.13 200.84 487.74 200.07 480.36 200.19 472.96 201.1 465.59 202.24 458.23 203.77 450.89 205.46 443.59 206.72 436.3 207.7 429.06 208.26 421.87 207.9 414.7 206.95 407.57 205.44 400.53 203.12 393.48 200.59 386.67 198.09 380.09 195.48 373.52 193.41 367.17 192.09 361.06 191.35 354.94 191.68 349.06 193.14 343.4 195.44 337.73 198.84 332.29 203.21 327.08 208.19 321.83 213.85 316.81 219.99 312.01 226.25 307.17 232.63 302.53 238.97 298.1 244.97 293.61 250.71 289.31 256.13 285.2 263.22 278.99 275 267.23 280.02 261.63 284.47 255.96 293.65 245.01 298.78 239.71 304.23 234.28 317.12 223.76 324.55 218.73 329.68 215.29 335.16 212.01 340.93 208.93 346.74 205.76 352.8 202.81 359.09 200.12 365.4 197.41 371.9 194.99 378.58 192.93" stroke-dasharray="10 7" transform="rotate(36.36, 400, 400)" opacity="0.12"></path><path d="M384.53 204.84C390.91 202.87 397.45 201.32 404.15 200.18 410.87 199.13 417.79 198.53 424.9 198.36 432.07 198.32 439.5 198.74 447.16 199.6 454.94 200.62 462.99 202.08 471.3 203.97 479.71 206.03 488.35 208.51 497.15 211.39 505.94 214.43 514.77 217.85 523.49 221.63 531.94 225.55 540.04 229.81 547.6 234.37 554.51 239.06 560.57 244.02 565.55 249.24 570.92 257.33 573.34 274.65 570.51 283.79 567.63 289.99 563.98 296.32 559.89 302.75 556.19 309.22 552.82 315.78 550.21 322.41 549.09 329.06 549.4 335.77 551.37 342.51 555.35 349.27 561.04 356.05 568.26 362.83 576.84 369.62 586.15 376.41 595.59 383.17 604.71 389.93 612.69 396.65 618.85 403.31 622.98 409.98 624.4 416.41 623.08 422.61 619.46 428.79 613.52 434.74 605.72 440.42 596.76 446.09 587.01 451.49 577.07 456.62 567.57 461.73 558.84 466.57 551.23 471.12 539.17 483.71 538.26 499.89 541.03 504.38 544.76 512.61 540.24 523.74 534.65 527.25 530.03 529.77 524.66 532.26 518.66 534.74 512.27 537.48 505.43 540.25 498.3 543.05 490.95 546.15 483.44 549.31 475.88 552.53 468.24 556.03 460.64 559.59 453.14 563.17 445.63 567.02 438.26 570.85 431.07 574.63 423.89 578.59 416.89 582.44 410.11 586.1 403.32 589.83 396.88 593.21 390.78 596.19 384.66 599.11 378.84 601.55 373.31 603.49 365.03 605.88 349.32 607.47 341.69 606.62 336.43 605.6 331.18 603.99 325.89 601.82 320.32 599.39 314.64 596.43 308.81 592.97 302.66 589.28 296.33 585.13 289.82 580.56 283.05 575.82 276.15 570.7 269.19 565.26 262.14 559.68 255.19 553.83 248.44 547.74 241.91 541.57 235.81 535.2 230.29 528.67 225.3 522.1 221.09 515.4 217.77 508.62 215.13 501.81 213.43 494.94 212.66 488.03 212.45 481.12 212.99 474.18 214.17 467.25 215.44 460.31 216.98 453.39 218.59 446.5 219.72 439.61 220.55 432.75 220.96 425.95 220.5 419.15 219.49 412.4 217.96 405.71 215.68 399.02 213.19 392.55 210.7 386.31 208.07 380.06 205.9 374.03 204.36 368.21 203.26 359.58 207.18 343.36 212.25 335.76 216.6 330.73 221.69 325.9 227.37 321.28 233.3 316.6 239.52 312.11 245.86 307.81 252.04 303.44 258.11 299.25 263.98 295.22 269.42 291.11 274.57 287.15 279.43 283.34 285.85 277.54 297.06 266.39 302.2 261.02 307 255.55 317.21 244.97 322.87 239.85 328.78 234.67 342.26 224.83 349.84 220.26 355 217.2 360.48 214.36 366.27 211.78 372.05 209.16 378.13 206.84 384.52 204.84" stroke-dasharray="7 7" transform="rotate(40.400000000000006, 400, 400)" opacity="0.09"></path><path d="M394.25 216.75C400.38 214.86 406.73 213.35 413.29 212.22 419.86 211.18 426.67 210.54 433.69 210.3 440.75 210.18 448.03 210.48 455.52 211.18 463.04 212.02 470.75 213.27 478.6 214.92 494.18 218.64 509.79 223.92 524.45 230.57 537.54 237.72 548.02 246.12 554.66 255.53 558.06 265.28 557.05 275.91 552.1 287.17 546.44 298.62 540.46 310.6 536.8 322.87 537.02 329.04 538.57 335.27 541.57 341.54 546.25 347.82 552.31 354.13 559.54 360.44 567.79 366.76 576.51 373.07 585.18 379.36 593.48 385.65 600.71 391.9 606.32 398.1 610.18 404.29 611.68 410.28 610.81 416.03 607.93 421.79 602.95 427.31 596.24 432.59 588.37 437.87 579.6 442.9 570.41 447.69 561.34 452.46 552.68 456.98 544.75 461.25 532.42 469.77 524.88 477.31 521.63 483.87 523.76 493.45 527.51 509.5 522.4 516.72 516.22 522.18 507.26 527.6 496.32 533.06 490.49 536.16 484.35 539.3 478 542.46 471.52 545.87 464.92 549.31 458.26 552.74 451.57 556.38 444.87 560 438.22 563.54 431.57 567.23 424.99 570.8 418.5 574.19 412.02 577.63 405.77 580.75 399.75 583.5 393.7 586.2 387.86 588.48 382.2 590.3 373.68 592.59 357 594.35 348.66 593.78 337.04 591.99 325.1 588.12 312.68 582.37 299.47 575.83 285.89 567.63 272.38 558.1 259.2 548.07 247.29 536.99 237.63 525.18 230.15 513.17 225.88 500.63 225.01 487.84 225.27 481.43 226.12 474.97 227.46 468.5 228.79 462.03 230.27 455.55 231.75 449.09 232.73 442.63 233.39 436.18 233.65 429.77 233.09 423.37 232.03 417 230.49 410.68 228.26 404.36 225.83 398.24 223.38 392.32 219.64 383.54 215.25 366.94 215.42 359.12 216.51 353.95 218.58 348.97 221.57 344.18 229.45 334.49 240.01 325.49 252.08 317.19 264.21 308.64 276.14 300.66 287.32 293.25 296.94 285.46 305.71 278.12 313.94 271.25 320.96 263.91 328.19 256.96 336.02 250.5 341.76 245.46 354.47 235.95 361.54 231.55 366.33 228.62 371.45 225.89 376.9 223.41 382.34 220.91 388.11 218.68 394.24 216.75" stroke-dasharray="9 1" transform="rotate(44.44, 400, 400)" opacity="0.18"></path><path d="M405.38 228.67C417.13 225.08 429.72 222.96 442.96 222.3 456.23 222.01 470.03 223.27 483.9 225.99 497.32 229.19 510.07 233.83 521.23 239.73 530.7 246.08 537.37 253.6 540.48 262.08 541.27 270.88 538.76 280.52 533.75 290.78 529.27 301.24 525.54 312.21 524.56 323.49 528.76 334.87 537.73 346.48 550.88 358.12 566.92 369.81 582.42 381.48 593.79 392.95 599.26 404.42 596.46 415.11 586.46 424.94 572.07 434.75 555.24 443.69 538.9 451.73 525.47 459.77 515.71 466.98 509.7 473.34 507.71 482.76 509.37 499.06 506.64 506.59 503.07 512.18 497.01 517.72 488.86 523.22 479.9 529.58 469.48 535.98 458.15 542.31 446.61 549.35 434.59 556.11 422.37 562.27 410.15 568.63 398.31 573.64 386.8 577.12 375.12 580.18 363.48 581.41 351.73 580.81 339.53 579.49 326.98 576.29 314.12 571.4 300.97 565.82 287.84 558.71 275.3 550.34 263.58 541.5 253.51 531.63 245.86 521.01 240.29 510.16 237.64 498.75 237.88 487.02 239.23 475.23 241.93 463.22 244.93 451.18 245.92 439.15 245.35 427.12 243.02 415.25 238.16 403.37 233.22 392.18 229.44 381.71 226.79 371.2 227.34 361.35 231.29 352.2 237.67 342.92 246.86 334.23 257.9 326.17 269.56 317.87 281.58 310.08 293.3 302.81 303.99 295.19 313.97 287.99 323.36 281.24 331.61 274.07 339.75 267.3 348.11 261.02 355.91 254.36 364.42 248.22 373.88 242.79 383.16 237.15 393.63 232.37 405.37 228.67" stroke-dasharray="4 2" transform="rotate(48.48, 400, 400)" opacity="0.44"></path><path d="M415.2 240.58C426.36 237.16 438.03 235.09 449.98 234.34 461.86 233.91 473.76 234.9 485.18 237.2 496 239.91 505.63 243.94 513.34 249.13 519.57 254.71 523.17 261.37 523.83 268.93 523.14 276.79 520.25 285.45 516.12 294.71 513.37 304.16 512.02 314.12 513.51 324.39 519.51 334.77 529.34 345.38 542.25 356.06 557.11 366.78 571.06 377.5 581.27 388.07 586.47 398.64 584.58 408.52 576.37 417.64 564.06 426.75 548.96 435.11 533.46 442.7 519.64 450.31 508.37 457.21 500.11 463.41 495.33 469.76 492.77 475.56 491.38 480.83 491.44 486.47 490.88 491.79 488.99 496.85 486.79 502.5 482.64 508.06 476.61 513.54 470.01 519.73 461.81 525.89 452.34 531.88 442.66 538.46 432.06 544.71 420.76 550.36 409.46 556.17 398.02 560.75 386.54 563.95 374.96 566.84 363.16 568.1 351.14 567.74 338.92 566.8 326.45 564.2 313.94 560.07 301.56 555.37 289.61 549.26 278.65 541.96 268.81 534.26 260.8 525.55 255.2 516.09 251.41 506.41 250.14 496.13 251.23 485.47 252.91 474.74 255.5 463.73 258.11 452.63 258.73 441.52 257.92 430.34 255.55 419.25 250.89 408.15 246.1 397.64 242.25 387.75 239.17 377.82 238.83 368.47 241.48 359.71 246.34 350.84 253.97 342.49 263.65 334.68 274.34 326.66 285.87 319.09 297.57 311.98 308.78 304.58 319.59 297.56 329.88 290.96 339.31 284.02 348.45 277.47 357.54 271.4 366.08 265.02 375 259.16 384.51 253.98 393.83 248.64 404.03 244.11 415.19 240.58" stroke-dasharray="9 5" transform="rotate(52.52, 400, 400)" opacity="0.73"></path><path d="M421.29 252.49C431.73 249.25 442.23 247.24 452.56 246.43 462.75 245.89 472.48 246.62 481.3 248.54 489.52 250.81 496.27 254.26 501.1 258.78 504.86 263.62 506.41 269.46 505.79 276.14 504.69 283.08 502.38 290.78 499.79 299.06 499.04 307.5 500 316.45 503.6 325.72 510.93 335.08 521.21 344.7 533.6 354.41 547.19 364.16 559.65 373.95 568.74 383.63 573.64 393.32 572.53 402.42 565.95 410.87 555.67 419.32 542.44 427.13 528.18 434.29 514.63 441.5 502.6 448.12 492.76 454.15 485.68 460.34 480.67 466.08 477.12 471.38 475.28 477.01 473.58 482.37 471.32 487.5 469.32 493.11 466.01 498.63 461.21 504.01 456.15 509.96 449.59 515.82 441.66 521.46 433.59 527.56 424.34 533.3 414.06 538.44 403.79 543.73 393.04 547.88 381.98 550.81 370.92 553.49 359.51 554.75 347.89 554.58 336.32 553.96 324.67 551.87 313.26 548.41 302.31 544.49 292.09 539.29 283.14 533 275.37 526.35 269.46 518.75 265.77 510.4 263.51 501.85 263.34 492.68 264.98 483.1 266.78 473.43 269.11 463.44 271.26 453.28 271.5 443.12 270.47 432.82 268.08 422.53 263.64 412.24 259.07 402.42 255.22 393.12 251.86 383.8 250.76 374.95 252.23 366.61 255.6 358.18 261.59 350.18 269.68 342.65 279 334.95 289.51 327.63 300.59 320.74 311.67 313.6 322.7 306.8 333.43 300.42 343.63 293.75 353.54 287.46 363.23 281.65 372.51 275.58 381.87 270.03 391.47 265.12 400.92 260.1 410.84 255.83 421.29 252.49" stroke-dasharray="8 0" transform="rotate(56.56, 400, 400)" opacity="0.08"></path><path d="M422.17 264.41C431.76 261.36 440.96 259.43 449.58 258.58 458.05 257.95 465.69 258.45 472.18 260.03 480.46 263.35 488.09 275.37 487.57 283.74 486.95 289.8 485.9 296.56 485.19 303.88 486.47 311.34 489.47 319.29 494.75 327.57 502.94 335.93 513.27 344.57 524.91 353.32 537.17 362.11 548.18 370.98 556.21 379.81 560.79 388.63 560.34 396.97 555.21 404.78 546.84 412.59 535.56 419.88 522.85 426.63 510.12 433.44 498.04 439.77 487.36 445.62 478.65 451.62 471.65 457.25 466.07 462.53 462.15 468.08 458.81 473.41 455.49 478.51 452.78 484.01 449.37 489.39 444.96 494.6 440.57 500.27 434.96 505.79 428.12 511.03 421.21 516.64 413.12 521.88 403.92 526.53 394.72 531.3 384.92 535.04 374.73 537.69 364.6 540.16 354.14 541.38 343.6 541.35 333.27 540.98 323.07 539.32 313.37 536.45 304.28 533.22 296.12 528.84 289.33 523.46 283.63 517.78 279.65 511.22 277.6 503.92 276.56 496.46 277.14 488.37 279.04 479.84 280.75 471.23 282.71 462.26 284.35 453.06 284.23 443.84 282.99 434.44 280.6 424.97 276.42 415.5 272.11 406.4 268.36 397.72 264.83 389.02 263.14 380.7 263.59 372.82 265.59 364.85 269.95 357.25 276.33 350.04 284 342.7 293.06 335.69 302.99 329.06 313.3 322.23 323.88 315.72 334.42 309.6 344.78 303.26 354.95 297.28 364.87 291.76 374.54 286.05 384.11 280.82 393.62 276.22 403.04 271.53 412.57 267.54 422.17 264.41" stroke-dasharray="5 10" transform="rotate(60.599999999999994, 400, 400)" opacity="0.53"></path><path d="M417.62 276.32C426.25 273.48 434.16 271.64 441.22 270.77 451.13 270.23 464.89 274.36 468.28 278.87 470.24 284.55 471.11 299.91 472.63 309.24 475.73 315.76 480.38 322.74 486.82 330.06 495.42 337.44 505.44 345.11 516.14 352.93 527.04 360.78 536.65 368.75 543.68 376.73 547.92 384.71 547.99 392.32 544.15 399.49 537.55 406.67 528.21 413.45 517.24 419.79 505.77 426.19 494.28 432.21 483.49 437.84 473.93 443.61 465.58 449.08 458.43 454.26 452.65 459.66 447.62 464.87 442.96 469.86 439.04 475.17 434.9 480.34 430.26 485.31 425.81 490.64 420.53 495.77 414.34 500.6 408.14 505.72 400.96 510.45 392.82 514.61 384.68 518.88 376.02 522.22 367.05 524.59 358.17 526.84 349.11 527.99 340.14 528.07 331.46 527.88 323.11 526.58 315.44 524.23 308.38 521.59 302.34 517.93 297.63 513.37 293.78 508.58 291.42 502.97 290.63 496.67 290.43 490.22 291.42 483.17 293.31 475.66 294.76 468.08 296.25 460.11 297.36 451.86 296.89 443.6 295.48 435.11 293.13 426.48 289.24 417.85 285.23 409.49 281.64 401.46 278.08 393.42 275.97 385.67 275.6 378.27 276.41 370.81 279.26 363.65 283.94 356.83 289.82 349.9 297.16 343.25 305.54 336.95 314.52 330.49 324.04 324.32 333.77 318.52 343.59 312.55 353.38 306.92 362.99 301.74 372.52 296.41 381.88 291.55 390.99 287.27 400.07 282.93 408.98 279.23 417.62 276.32" stroke-dasharray="4 10" transform="rotate(64.64, 400, 400)" opacity="0.70"></path><path d="M408.75 288.24C419.74 284.75 437.08 282.36 443.17 283.43 448.1 285.59 453.57 294.09 455.22 300.22 457.04 304.65 459.25 309.68 462.24 315.2 466.78 320.81 472.58 326.87 479.67 333.26 488.24 339.7 497.65 346.43 507.26 353.35 516.79 360.29 525.08 367.38 531.16 374.54 535.02 381.69 535.5 388.57 532.77 395.12 527.76 401.67 520.29 407.92 511.15 413.83 501.25 419.79 490.86 425.47 480.62 430.84 470.99 436.32 462.06 441.56 453.99 446.55 446.9 451.74 440.51 456.74 434.64 461.53 429.44 466.57 424.35 471.45 419.16 476.12 414.22 481.05 408.87 485.77 402.99 490.17 397.14 494.77 390.64 499 383.48 502.7 376.31 506.47 368.87 509.42 361.31 511.52 353.85 513.53 346.41 514.6 339.26 514.74 329.18 514.19 313.17 508.12 308.16 502.79 305.21 496.42 305.47 480.13 307.65 470.56 308.71 463.97 309.68 456.97 310.28 449.67 309.49 442.35 307.94 434.77 305.66 426.99 302.07 419.22 298.41 411.63 295.06 404.29 291.59 396.93 289.24 389.8 288.26 382.94 288.11 376.04 289.64 369.37 292.75 362.99 296.88 356.53 302.4 350.31 309.01 344.39 316.28 338.35 324.28 332.59 332.67 327.17 341.33 321.62 350.15 316.4 358.89 311.59 367.69 306.68 376.35 302.21 384.7 298.28 393.07 294.3 401.14 290.92 408.75 288.24" stroke-dasharray="3 2" transform="rotate(68.68, 400, 400)" opacity="0.12"></path><path d="M397.74 300.15C407.23 296.96 422.09 294.58 427.49 295.34 432.21 297.02 439.39 304.01 442.88 309.13 446.02 312.84 449.64 317.08 453.96 321.77 459.46 326.54 465.87 331.72 473.1 337.22 481.26 342.77 489.81 348.6 498.23 354.64 506.41 360.69 513.44 366.93 518.63 373.28 522.11 379.63 522.89 385.79 521.08 391.7 517.46 397.62 511.73 403.33 504.42 408.78 496.25 414.27 487.33 419.55 478.17 424.59 469.15 429.72 460.4 434.66 452.15 439.39 444.47 444.27 437.32 448.98 430.67 453.49 424.52 458.18 418.64 462.71 412.91 467.01 407.43 471.51 401.86 475.78 396.12 479.72 390.44 483.82 384.45 487.55 378.17 490.78 371.89 494.08 365.62 496.65 359.48 498.48 350.49 500.74 334.69 501.05 328.55 499.11 323.73 496.17 319.21 486.48 319.42 479.96 320.26 472.75 322.74 455.88 323.06 446.48 322 440.09 320.37 433.41 318.19 426.5 314.93 419.6 311.64 412.8 308.6 406.18 305.34 399.55 302.92 393.07 301.54 386.81 300.69 380.51 301.16 374.4 302.95 368.52 305.49 362.59 309.28 356.86 314.1 351.39 319.53 345.85 325.74 340.55 332.48 335.56 339.55 330.48 346.93 325.71 354.37 321.32 361.96 316.86 369.48 312.8 376.77 309.24 384.11 305.65 391.15 302.59 397.74 300.15" stroke-dasharray="8 7" transform="rotate(72.72, 400, 400)" opacity="0.33"></path><path d="M387.29 312.07C398.53 307.84 407.39 306.38 414.07 307.4 421.2 308.77 427.37 312.62 433.74 318.5 442.67 324.67 453.77 332.68 466.92 341.99 482.05 351.4 496.36 361.92 506.11 373.03 510.79 384.13 507.07 394.78 496.9 404.64 483.48 414.63 467.64 424.09 452 432.73 437.33 441.81 423.87 450.37 411.75 457.98 400.38 466.14 389.21 473.36 378.22 478.87 367.22 484.57 357.36 487.61 349.39 488.04 339.4 486.79 333.78 471.02 336.01 457.73 335.47 448.15 333.83 437.08 330.71 425.02 324.23 412.97 318.62 401.1 315.39 389.88 313.24 378.59 315.38 367.81 321.32 357.97 329.15 347.94 339.7 338.74 351.37 330.93 363.66 322.95 376.04 316.43 387.29 312.07" stroke-dasharray="0 5" transform="rotate(76.76, 400, 400)" opacity="0.49"></path><path d="M379.94 323.98C389.4 320.27 397.6 318.88 404.67 319.59 412.25 320.54 419.74 323.57 427.74 328.32 437.52 333.28 448.77 339.83 460.92 347.57 473.9 355.38 485.65 364.24 493.58 373.78 497.85 383.31 495.74 392.61 488.48 401.37 478.48 410.23 465.79 418.72 452.46 426.53 439.21 434.65 426.44 442.27 414.84 449 403.65 456.1 393.14 462.29 383.59 466.96 370.13 473.03 353.1 473.8 350.3 468.62 348.91 464.25 348.97 457.95 349.74 450.13 348.39 442.2 346.26 432.9 343.24 422.61 337.64 412.31 332.81 402.03 329.72 392.21 327 382.35 327.47 372.86 330.94 364.17 335.67 355.36 342.89 347.28 351.55 340.42 360.71 333.47 370.47 327.8 379.94 323.98" stroke-dasharray="2 7" transform="rotate(80.80000000000001, 400, 400)" opacity="0.74"></path><path d="M377.5 335.9C385.34 332.72 392.91 331.47 400.2 331.93 407.87 332.54 415.93 334.85 424.49 338.59 434.05 342.46 444.44 347.68 454.91 353.95 465.51 360.26 474.81 367.54 481.05 375.51 484.81 383.47 483.9 391.38 479.11 398.93 472.24 406.54 462.85 413.91 452.42 420.73 441.59 427.74 430.67 434.31 420.49 440.06 410.45 446.05 401.12 451.21 392.98 455.04 374.95 460.36 363.68 450.7 362.98 441.87 361 435.49 358.59 427.89 355.77 419.35 351.09 410.81 347.11 402.18 344.43 393.85 341.67 385.51 341.17 377.43 342.94 370 345.36 362.51 349.88 355.64 355.93 349.81 362.29 343.94 369.66 339.14 377.5 335.9" stroke-dasharray="10 1" transform="rotate(84.84, 400, 400)" opacity="0.81"></path><path d="M380.58 347.81C386.89 345.21 393.6 344.13 400.5 344.4 407.62 344.75 415.27 346.44 423.23 349.28 431.62 352.19 440.33 356.19 448.68 361.08 456.84 365.99 463.81 371.75 468.52 378.15 471.67 384.55 471.59 391 468.76 397.22 464.53 403.49 458.25 409.6 450.84 415.27 442.95 421.05 434.59 426.45 426.52 431.15 418.42 435.98 410.78 440.1 404.09 443.13 389.05 447.31 377.57 439.93 375.61 433.08 373.28 428.12 370.8 422.15 368.3 415.37 364.56 408.58 361.48 401.64 359.37 394.9 357 388.15 356.17 381.57 356.96 375.51 357.97 369.43 360.62 363.84 364.69 359.1 368.88 354.35 374.26 350.46 380.58 347.81" stroke-dasharray="4 3" transform="rotate(88.88, 400, 400)" opacity="0.92"></path><path d="M388.4 359.73C398.07 355.77 410.35 356.32 423.02 360.35 436.05 364.5 448.65 371.95 455.99 381.61 459.95 391.26 455.8 401.36 446.96 410.08 436.62 419.02 424.47 426.78 414.19 431.21 403.91 435.77 397.2 435.84 393.58 432.19 388.48 428.4 384.16 420.92 380.83 410.81 374.64 400.7 371.52 389.96 372.38 380.75 373.21 371.53 378.73 363.79 388.4 359.73" stroke-dasharray="0 0" transform="rotate(92.92, 400, 400)" opacity="0.72"></path><path d="M399.07 371.64C412.29 366.31 433.4 372.79 443.47 385.76 447.74 398.71 434.73 413.55 420.82 419.3 406.9 425.27 397.17 419.22 393.35 405.85 384.38 392.47 385.84 377.18 399.07 371.64" stroke-dasharray="9 8" transform="rotate(96.96, 400, 400)" opacity="0.70"></path></g></svg>